<?xml version="1.0" encoding="UTF-8" standalone="no"?>
<!-- Created with Inkscape (http://www.inkscape.org/) -->
<svg
   xmlns:dc="http://purl.org/dc/elements/1.1/"
   xmlns:cc="http://creativecommons.org/ns#"
   xmlns:rdf="http://www.w3.org/1999/02/22-rdf-syntax-ns#"
   xmlns:svg="http://www.w3.org/2000/svg"
   xmlns="http://www.w3.org/2000/svg"
   xmlns:xlink="http://www.w3.org/1999/xlink"
   xmlns:sodipodi="http://sodipodi.sourceforge.net/DTD/sodipodi-0.dtd"
   xmlns:inkscape="http://www.inkscape.org/namespaces/inkscape"
   width="415.25"
   height="410.22"
   id="svg3842"
   sodipodi:version="0.32"
   inkscape:version="0.45+0.46pre0+devel"
   sodipodi:docname="wedding ring in a box.svg"
   inkscape:output_extension="org.inkscape.output.svg.inkscape"
   version="1.0"
   inkscape:export-filename="F:\Clipart\vector\rockraikar\wedding ring in a box.png"
   inkscape:export-xdpi="90"
   inkscape:export-ydpi="90">
  <defs
     id="defs3844">
    <inkscape:perspective
       sodipodi:type="inkscape:persp3d"
       inkscape:vp_x="-50 : 600 : 1"
       inkscape:vp_y="0 : 1000 : 0"
       inkscape:vp_z="700 : 600 : 1"
       inkscape:persp3d-origin="300 : 400 : 1"
       id="perspective5191" />
    <linearGradient
       inkscape:collect="always"
       xlink:href="#linearGradient3233"
       id="linearGradient3616"
       gradientUnits="userSpaceOnUse"
       x1="16.604334"
       y1="564.19659"
       x2="316.15695"
       y2="564.19659"
       gradientTransform="translate(547.85715,928.57143)" />
    <radialGradient
       inkscape:collect="always"
       xlink:href="#linearGradient3629"
       id="radialGradient3647"
       cx="717.30719"
       cy="1436.807"
       fx="717.30719"
       fy="1436.807"
       r="138.39307"
       gradientTransform="matrix(1.8253456,-0.1393556,4.3610541e-2,0.5712314,-654.68627,724.00632)"
       gradientUnits="userSpaceOnUse" />
    <radialGradient
       inkscape:collect="always"
       xlink:href="#linearGradient3316"
       id="radialGradient3610"
       gradientUnits="userSpaceOnUse"
       gradientTransform="matrix(2.0329007,-6.7569226e-2,7.2393293e-2,2.1780361,-742.20248,-680.0534)"
       cx="683.62323"
       cy="606.31256"
       fx="683.62323"
       fy="606.31256"
       r="33.35714" />
    <linearGradient
       inkscape:collect="always"
       xlink:href="#linearGradient3316"
       id="linearGradient3608"
       gradientUnits="userSpaceOnUse"
       gradientTransform="translate(57.331474,-275.18862)"
       x1="454.29465"
       y1="1039.5066"
       x2="703.57141"
       y2="838.07812" />
    <radialGradient
       inkscape:collect="always"
       xlink:href="#linearGradient3316"
       id="radialGradient3606"
       gradientUnits="userSpaceOnUse"
       gradientTransform="matrix(2.8427943,-0.7855873,-1.2745436,1.78981,392.08837,-477.4013)"
       cx="657.85712"
       cy="1258.7908"
       fx="657.85712"
       fy="1258.7908"
       r="15.293488" />
    <linearGradient
       inkscape:collect="always"
       xlink:href="#linearGradient3316"
       id="linearGradient3604"
       gradientUnits="userSpaceOnUse"
       x1="658.24573"
       y1="1283.3083"
       x2="684.75208"
       y2="1283.3083" />
    <linearGradient
       inkscape:collect="always"
       xlink:href="#linearGradient3316"
       id="linearGradient3602"
       gradientUnits="userSpaceOnUse"
       x1="669.4837"
       y1="1287.5383"
       x2="696.36884"
       y2="1287.5383" />
    <linearGradient
       inkscape:collect="always"
       xlink:href="#linearGradient3316"
       id="linearGradient3600"
       gradientUnits="userSpaceOnUse"
       gradientTransform="translate(-0.6944799,0.1262691)"
       x1="684.13092"
       y1="1283.8134"
       x2="711.6474"
       y2="1283.8134" />
    <linearGradient
       inkscape:collect="always"
       xlink:href="#linearGradient3316"
       id="linearGradient3598"
       gradientUnits="userSpaceOnUse"
       x1="694.86377"
       y1="1272.828"
       x2="707.60681"
       y2="1265.6306" />
    <linearGradient
       inkscape:collect="always"
       xlink:href="#linearGradient3316"
       id="linearGradient3596"
       gradientUnits="userSpaceOnUse"
       x1="669.73621"
       y1="1272.8911"
       x2="696.49512"
       y2="1272.8911" />
    <linearGradient
       inkscape:collect="always"
       xlink:href="#linearGradient3316"
       id="linearGradient3594"
       gradientUnits="userSpaceOnUse"
       x1="661.27618"
       y1="1264.9993"
       x2="670.98877"
       y2="1273.0804" />
    <linearGradient
       inkscape:collect="always"
       xlink:href="#linearGradient3316"
       id="linearGradient3592"
       gradientUnits="userSpaceOnUse"
       x1="642.71033"
       y1="1258.7908"
       x2="673.00391"
       y2="1258.7908" />
    <linearGradient
       id="linearGradient3316">
      <stop
         style="stop-color:#b0b0b0;stop-opacity:1;"
         offset="0"
         id="stop3318" />
      <stop
         id="stop3340"
         offset="0.5"
         style="stop-color:#ffffff;stop-opacity:1;" />
      <stop
         style="stop-color:#b0b0b0;stop-opacity:1;"
         offset="1"
         id="stop3320" />
    </linearGradient>
    <linearGradient
       inkscape:collect="always"
       xlink:href="#linearGradient3316"
       id="linearGradient3590"
       gradientUnits="userSpaceOnUse"
       x1="658.98291"
       y1="1283.4438"
       x2="711.01752"
       y2="1283.4438" />
    <linearGradient
       id="linearGradient3402">
      <stop
         id="stop3404"
         offset="0"
         style="stop-color:#646464;stop-opacity:1;" />
      <stop
         style="stop-color:#cbcbcb;stop-opacity:1;"
         offset="0.5"
         id="stop3406" />
      <stop
         id="stop3408"
         offset="1"
         style="stop-color:#8a8a8a;stop-opacity:1;" />
    </linearGradient>
    <linearGradient
       inkscape:collect="always"
       xlink:href="#linearGradient3402"
       id="linearGradient3588"
       gradientUnits="userSpaceOnUse"
       gradientTransform="translate(57.331474,-275.18862)"
       x1="525.00897"
       y1="1146.6495"
       x2="720"
       y2="923.79242" />
    <linearGradient
       id="linearGradient3629">
      <stop
         style="stop-color:#fff4bb;stop-opacity:1;"
         offset="0"
         id="stop3631" />
      <stop
         id="stop3637"
         offset="0.46475685"
         style="stop-color:#fff6c5;stop-opacity:1;" />
      <stop
         style="stop-color:#a0885f;stop-opacity:1;"
         offset="1"
         id="stop3633" />
    </linearGradient>
    <linearGradient
       inkscape:collect="always"
       xlink:href="#linearGradient3629"
       id="linearGradient3655"
       x1="721.20862"
       y1="1318.8052"
       x2="793.3468"
       y2="1516.6622"
       gradientUnits="userSpaceOnUse" />
    <linearGradient
       inkscape:collect="always"
       xlink:href="#linearGradient3215"
       id="linearGradient3613"
       gradientUnits="userSpaceOnUse"
       x1="93.37439"
       y1="483.64505"
       x2="315.37723"
       y2="483.64505"
       gradientTransform="translate(547.85715,928.57143)" />
    <linearGradient
       inkscape:collect="always"
       xlink:href="#linearGradient3215"
       id="linearGradient3619"
       gradientUnits="userSpaceOnUse"
       x1="16.285719"
       y1="514.65997"
       x2="133"
       y2="514.65997"
       gradientTransform="translate(547.85715,928.57143)" />
    <filter
       inkscape:collect="always"
       id="filter3788"
       x="-0.10016696"
       width="1.200334"
       y="-0.21101986"
       height="1.4220397">
      <feGaussianBlur
         inkscape:collect="always"
         stdDeviation="12.385784"
         id="feGaussianBlur3790" />
    </filter>
    <linearGradient
       id="linearGradient3794">
      <stop
         style="stop-color:#a8975a;stop-opacity:0.88627452;"
         offset="0"
         id="stop3796" />
      <stop
         style="stop-color:#ffffff;stop-opacity:0;"
         offset="1"
         id="stop3798" />
    </linearGradient>
    <linearGradient
       inkscape:collect="always"
       xlink:href="#linearGradient3794"
       id="linearGradient3806"
       x1="319.84009"
       y1="511.57928"
       x2="52.108223"
       y2="387.254"
       gradientUnits="userSpaceOnUse" />
    <linearGradient
       inkscape:collect="always"
       xlink:href="#linearGradient3215"
       id="linearGradient3675"
       gradientUnits="userSpaceOnUse"
       x1="93.37439"
       y1="483.64505"
       x2="315.37723"
       y2="483.64505" />
    <linearGradient
       id="linearGradient3233">
      <stop
         style="stop-color:#ff8100;stop-opacity:1;"
         offset="0"
         id="stop3235" />
      <stop
         id="stop3241"
         offset="0.5"
         style="stop-color:#ffcb96;stop-opacity:1;" />
      <stop
         style="stop-color:#ff8100;stop-opacity:1;"
         offset="1"
         id="stop3237" />
    </linearGradient>
    <linearGradient
       inkscape:collect="always"
       xlink:href="#linearGradient3233"
       id="linearGradient3677"
       gradientUnits="userSpaceOnUse"
       x1="16.604334"
       y1="564.19659"
       x2="316.15695"
       y2="564.19659" />
    <linearGradient
       id="linearGradient3215">
      <stop
         style="stop-color:#ffd200;stop-opacity:1;"
         offset="0"
         id="stop3217" />
      <stop
         id="stop3223"
         offset="0.31338719"
         style="stop-color:#fff3a4;stop-opacity:1;" />
      <stop
         style="stop-color:#ffe905;stop-opacity:1;"
         offset="1"
         id="stop3219" />
    </linearGradient>
    <linearGradient
       inkscape:collect="always"
       xlink:href="#linearGradient3215"
       id="linearGradient3671"
       gradientUnits="userSpaceOnUse"
       x1="16.285719"
       y1="514.65997"
       x2="133"
       y2="514.65997" />
    <radialGradient
       inkscape:collect="always"
       xlink:href="#linearGradient3681"
       id="radialGradient3701"
       gradientUnits="userSpaceOnUse"
       gradientTransform="matrix(-1.192355,-0.1486842,2.8562825e-2,-0.2290575,217.29617,617.13875)"
       cx="68.51255"
       cy="251.45708"
       fx="68.51255"
       fy="251.45708"
       r="148.38167" />
    <linearGradient
       id="linearGradient3681">
      <stop
         style="stop-color:#fff8d4;stop-opacity:1;"
         offset="0"
         id="stop3683" />
      <stop
         id="stop3697"
         offset="0.5"
         style="stop-color:#fffbe9;stop-opacity:0;" />
      <stop
         style="stop-color:#ffffff;stop-opacity:0;"
         offset="1"
         id="stop3685" />
    </linearGradient>
    <radialGradient
       inkscape:collect="always"
       xlink:href="#linearGradient3681"
       id="radialGradient3695"
       gradientUnits="userSpaceOnUse"
       gradientTransform="matrix(-0.9896681,-0.286147,0.1172111,-0.405389,226.85631,626.09596)"
       cx="48.711166"
       cy="234.94432"
       fx="48.711166"
       fy="234.94432"
       r="148.38167" />
    <inkscape:perspective
       sodipodi:type="inkscape:persp3d"
       inkscape:vp_x="-50 : 600 : 1"
       inkscape:vp_y="0 : 1000 : 0"
       inkscape:vp_z="700 : 600 : 1"
       inkscape:persp3d-origin="300 : 400 : 1"
       id="perspective3850" />
    <filter
       inkscape:collect="always"
       id="filter4521">
      <feGaussianBlur
         inkscape:collect="always"
         stdDeviation="2.4176"
         id="feGaussianBlur4523" />
    </filter>
  </defs>
  <sodipodi:namedview
     id="base"
     pagecolor="#ffffff"
     bordercolor="#666666"
     borderopacity="1.0"
     gridtolerance="10000"
     guidetolerance="10"
     objecttolerance="10"
     inkscape:pageopacity="0.0"
     inkscape:pageshadow="2"
     inkscape:zoom="0.35"
     inkscape:cx="329.9063"
     inkscape:cy="24.930847"
     inkscape:document-units="px"
     inkscape:current-layer="layer1"
     showgrid="false"
     inkscape:window-width="1280"
     inkscape:window-height="744"
     inkscape:window-x="-4"
     inkscape:window-y="-4" />
  <metadata
     id="metadata3847">
    <rdf:RDF>
      <cc:Work
         rdf:about="">
        <dc:format>image/svg+xml</dc:format>
        <dc:type
           rdf:resource="http://purl.org/dc/dcmitype/StillImage" />
        <dc:title>Wedding Ring in a Box</dc:title>
        <dc:date>03/02/2008</dc:date>
        <dc:creator>
          <cc:Agent>
            <dc:title>rockraikar</dc:title>
          </cc:Agent>
        </dc:creator>
        <dc:rights>
          <cc:Agent>
            <dc:title></dc:title>
          </cc:Agent>
        </dc:rights>
        <dc:publisher>
          <cc:Agent>
            <dc:title>rockraikar</dc:title>
          </cc:Agent>
        </dc:publisher>
        <dc:identifier></dc:identifier>
        <dc:source></dc:source>
        <dc:relation></dc:relation>
        <dc:language></dc:language>
        <dc:subject>
          <rdf:Bag>
            <rdf:li>ring</rdf:li>
            <rdf:li>wedding</rdf:li>
            <rdf:li>heart</rdf:li>
            <rdf:li>box</rdf:li>
          </rdf:Bag>
        </dc:subject>
        <dc:coverage></dc:coverage>
        <dc:description>Wedding Ring in a Heart shaped Box</dc:description>
        <dc:contributor>
          <cc:Agent>
            <dc:title></dc:title>
          </cc:Agent>
        </dc:contributor>
        <cc:license
           rdf:resource="http://creativecommons.org/licenses/by-sa/3.0/" />
      </cc:Work>
      <cc:License
         rdf:about="http://creativecommons.org/licenses/by-sa/3.0/">
        <cc:permits
           rdf:resource="http://creativecommons.org/ns#Reproduction" />
        <cc:permits
           rdf:resource="http://creativecommons.org/ns#Distribution" />
        <cc:requires
           rdf:resource="http://creativecommons.org/ns#Notice" />
        <cc:requires
           rdf:resource="http://creativecommons.org/ns#Attribution" />
        <cc:permits
           rdf:resource="http://creativecommons.org/ns#DerivativeWorks" />
        <cc:requires
           rdf:resource="http://creativecommons.org/ns#ShareAlike" />
      </cc:License>
    </rdf:RDF>
  </metadata>
  <g
     inkscape:label="Layer 1"
     inkscape:groupmode="layer"
     id="layer1"
     transform="translate(-208.30546,-283.17875)">
    <g
       id="g3808"
       transform="translate(-263.26551,-849.48543)">
      <g
         style="stroke:none"
         transform="matrix(-0.330357,0.943856,-0.943856,-0.330357,1139.0268,1369.4828)"
         id="g3657">
        <path
           sodipodi:nodetypes="cscsc"
           id="path3659"
           d="M 306.21186,581.4004 C 268.72964,611.76035 61.13761,610.14469 25.682057,579.21707 C 7.6548377,563.49204 10.165496,512.30778 133.1089,528.57484 C 39.794393,489.22419 133.99168,462.16905 169.8445,462.44808 C 242.78227,463.01574 343.69412,551.04045 306.21186,581.4004 z"
           style="fill:#ddd08f;fill-opacity:1;stroke:none;stroke-width:0.89999998;stroke-linejoin:round;stroke-miterlimit:4;stroke-opacity:1" />
        <path
           sodipodi:nodetypes="ccccc"
           id="path3663"
           d="M 93.571429,453.79075 L 93.928572,500.93361 C 103.24591,520.00057 119.63343,522.0991 133.21429,530.93361 L 132.85714,490.21932 C 116.38186,481.45651 96.51108,476.08919 93.571429,453.79075 z"
           style="fill:#dc6f00;fill-opacity:1;fill-rule:evenodd;stroke:none;stroke-width:1px;stroke-linecap:butt;stroke-linejoin:miter;stroke-opacity:1" />
        <path
           style="fill:url(#radialGradient3695);fill-opacity:1;stroke:none;stroke-width:0.89999998;stroke-linejoin:round;stroke-miterlimit:4;stroke-opacity:1"
           d="M 276.25506,560.10588 C 246.74654,584.00739 83.315072,582.73527 55.40191,558.38695 C 41.209589,546.00692 43.18616,505.71116 139.97605,518.51772 C 66.512162,487.53797 140.67106,466.23833 168.89701,466.45796 C 226.31887,466.90472 305.76392,536.20433 276.25506,560.10588 z"
           id="path3693"
           sodipodi:nodetypes="cscsc" />
        <path
           sodipodi:nodetypes="cscssc"
           id="path3699"
           d="M 245.61417,610.08023 C 208.13195,640.44018 0.53992767,638.82452 -34.915622,607.8969 C -52.942842,592.17187 -50.432182,540.98761 72.51122,557.25467 C 61.383014,552.56192 52.921547,548.04402 46.709846,543.7265 C 0.83391305,511.83985 77.669622,490.88215 109.24682,491.12791 C 182.18458,491.69557 283.09643,579.72028 245.61417,610.08023 z"
           style="fill:url(#radialGradient3701);fill-opacity:1;stroke:none;stroke-width:0.89999998;stroke-linejoin:round;stroke-miterlimit:4;stroke-opacity:1" />
        <path
           sodipodi:nodetypes="ccccc"
           id="path3665"
           d="M 133.6918,489.80218 L 133.1678,530.75403 C 100.89933,527.67852 69.794043,518.93245 28.928569,541.64789 C 22.093139,538.04395 16.990389,533.20238 16.785719,524.86218 C 19.902979,498.17683 46.267951,480.49146 133.6918,489.80218 z"
           style="fill:url(#linearGradient3671);fill-opacity:1;fill-rule:evenodd;stroke:none;stroke-width:1px;stroke-linecap:butt;stroke-linejoin:miter;stroke-opacity:1" />
        <path
           sodipodi:nodetypes="ccccc"
           id="path3667"
           d="M 17.142857,523.07647 L 17.857143,566.6479 C 16.442973,620.40006 313.18598,623.03394 314.64286,570.57647 L 315.35714,525.21932 C 326.68696,580.75518 13.112569,581.33924 17.142857,523.07647 z"
           style="fill:url(#linearGradient3677);fill-opacity:1;fill-rule:evenodd;stroke:none;stroke-width:1px;stroke-linecap:butt;stroke-linejoin:miter;stroke-opacity:1" />
        <path
           id="path3669"
           d="M 306.42856,542.7193 C 279.1617,504.18281 236.9913,477.07501 191.01776,466.86878 C 178.06926,462.57609 164.53997,465.31764 151.35642,466.56496 C 137.27654,468.31248 123.05193,471.51398 110.71429,478.79075 C 102.20637,473.08863 90.785545,464.45153 94.648173,452.71323 C 98.479612,441.62048 111.42727,439.47997 120.56757,434.48983 C 148.77126,422.33625 181.80529,420.88786 210.37042,432.72587 C 246.58318,445.82515 282.42182,466.20195 303.92984,499.14571 C 309.10351,507.8066 314.57181,517.27679 314.87722,527.55865 C 314.54974,533.44486 312.78574,540.68972 306.42856,542.7193 z"
           style="fill:url(#linearGradient3675);fill-opacity:1;fill-rule:evenodd;stroke:none;stroke-width:1px;stroke-linecap:butt;stroke-linejoin:miter;stroke-opacity:1" />
        <path
           style="fill:url(#linearGradient3806);fill-opacity:1;fill-rule:evenodd;stroke:none;stroke-width:1px;stroke-linecap:butt;stroke-linejoin:miter;stroke-opacity:1"
           d="M 306.42856,542.7193 C 279.1617,504.18281 236.9913,477.07501 191.01776,466.86878 C 178.06926,462.57609 164.53997,465.31764 151.35642,466.56496 C 137.27654,468.31248 123.05193,471.51398 110.71429,478.79075 C 102.20637,473.08863 90.785545,464.45153 94.648173,452.71323 C 98.479612,441.62048 111.42727,439.47997 120.56757,434.48983 C 148.77126,422.33625 181.80529,420.88786 210.37042,432.72587 C 246.58318,445.82515 282.42182,466.20195 303.92984,499.14571 C 309.10351,507.8066 314.57181,517.27679 314.87722,527.55865 C 314.54974,533.44486 312.78574,540.68972 306.42856,542.7193 z"
           id="path3792" />
      </g>
      <g
         id="g3703">
        <path
           transform="matrix(0.9932606,0,0,0.9932606,28.760935,-6.124529)"
           sodipodi:nodetypes="cscsc"
           id="path3726"
           d="M 846.72974,1513.8595 C 809.24752,1544.2195 601.65548,1542.6038 566.19993,1511.6762 C 548.17271,1495.9512 550.68337,1444.7669 673.62678,1461.034 C 580.31227,1421.6833 674.50956,1394.6282 710.36238,1394.9072 C 783.30015,1395.4749 884.212,1483.4996 846.72974,1513.8595 z"
           style="fill:#727067;fill-opacity:1;stroke:none;stroke-width:0.89999998;stroke-linejoin:round;stroke-miterlimit:4;stroke-opacity:1;filter:url(#filter3788)" />
        <path
           style="fill:#ffe979;fill-opacity:1;stroke:none;stroke-width:0.89999998;stroke-linejoin:round;stroke-miterlimit:4;stroke-opacity:1"
           d="M 854.72972,1511.8595 C 817.2475,1542.2195 609.65547,1540.6038 574.19992,1509.6762 C 556.1727,1493.9512 558.68336,1442.7669 681.62676,1459.034 C 588.31226,1419.6833 682.50954,1392.6282 718.36236,1392.9072 C 791.30013,1393.4749 892.21198,1481.4996 854.72972,1511.8595 z"
           id="path3542"
           sodipodi:nodetypes="cscsc" />
        <path
           style="fill:#dc6f00;fill-opacity:1;fill-rule:evenodd;stroke:none;stroke-width:1px;stroke-linecap:butt;stroke-linejoin:miter;stroke-opacity:1"
           d="M 641.42858,1382.3622 L 641.78572,1429.505 C 651.10306,1448.572 667.49058,1450.6705 681.07144,1459.505 L 680.71429,1418.7907 C 664.23901,1410.0279 644.36823,1404.6606 641.42858,1382.3622 z"
           id="path3546"
           sodipodi:nodetypes="ccccc" />
        <path
           style="fill:url(#linearGradient3619);fill-opacity:1;fill-rule:evenodd;stroke:none;stroke-width:1px;stroke-linecap:butt;stroke-linejoin:miter;stroke-opacity:1"
           d="M 680.35715,1418.7907 L 680.00001,1460.2193 C 647.73153,1457.1438 617.65119,1447.5039 576.78572,1470.2193 C 569.95029,1466.6154 564.84754,1461.7738 564.64287,1453.4336 C 567.76013,1426.7483 592.9333,1409.48 680.35715,1418.7907 z"
           id="path3548"
           sodipodi:nodetypes="ccccc" />
        <path
           style="fill:url(#linearGradient3613);fill-opacity:1;fill-rule:evenodd;stroke:none;stroke-width:1px;stroke-linecap:butt;stroke-linejoin:miter;stroke-opacity:1"
           d="M 854.28571,1471.2907 C 827.01885,1432.7542 784.84845,1405.6464 738.87491,1395.4402 C 725.92641,1391.1475 712.39712,1393.8891 699.21357,1395.1364 C 685.13369,1396.8839 670.90908,1400.0854 658.57144,1407.3622 C 650.06352,1401.6601 638.6427,1393.023 642.50532,1381.2847 C 646.33676,1370.1919 659.28442,1368.0514 668.42472,1363.0613 C 696.62841,1350.9077 729.66244,1349.4593 758.22757,1361.2973 C 794.44033,1374.3966 830.27897,1394.7734 851.78699,1427.7171 C 856.96066,1436.378 862.42896,1445.8482 862.73437,1456.1301 C 862.40689,1462.0163 860.64289,1469.2611 854.28571,1471.2907 z"
           id="path3552" />
        <path
           sodipodi:nodetypes="csccsc"
           id="path3624"
           d="M 853.02943,1471.2198 C 807.45422,1524.4538 610.05342,1500.1108 578.40903,1472.3098 C 562.83304,1458.6256 579.64886,1417.9956 679.73981,1428.0682 C 679.75823,1428.4004 680.12914,1428.0406 681.36005,1419.6687 C 600.85348,1384.8011 690.73425,1366.0369 722.7334,1366.2877 C 787.83138,1366.798 873.85598,1438.8783 853.02943,1471.2198 z"
           style="opacity:1;fill:url(#linearGradient3655);fill-opacity:1;stroke:none;stroke-width:0.9000001;stroke-linejoin:round;stroke-miterlimit:4;stroke-opacity:1" />
        <path
           style="fill:#d2d2d2;fill-opacity:1;stroke:none;stroke-width:1;stroke-linejoin:round;stroke-miterlimit:4;stroke-dasharray:none;stroke-opacity:1;filter:url(#filter4521)"
           d="M 737.60049,1351.2801 L 726.50674,1356.4363 L 728.60049,1357.9051 L 728.41299,1357.9988 L 726.28799,1356.6551 L 720.56924,1361.6863 L 721.72549,1362.4676 L 721.35049,1362.4363 L 720.47549,1361.9051 L 725.75674,1367.1238 C 725.66806,1367.0986 725.58686,1367.0718 725.50674,1367.0613 L 726.69424,1371.9363 L 728.00674,1379.1238 C 727.38851,1379.3483 726.77275,1379.5651 726.16299,1379.8113 C 726.11977,1379.8288 726.08117,1379.8562 726.03799,1379.8738 C 725.4068,1380.1305 724.7847,1380.4067 724.16299,1380.6863 C 723.82779,1380.8372 723.49535,1380.9976 723.16299,1381.1551 C 722.64162,1381.4018 722.11469,1381.6424 721.60049,1381.9051 C 721.22048,1382.0993 720.85147,1382.3273 720.47549,1382.5301 C 720.16805,1382.6958 719.84268,1382.8274 719.53799,1382.9988 C 718.68757,1383.4774 717.8663,1383.9769 717.03799,1384.4988 C 716.46766,1384.8577 715.9099,1385.2449 715.35049,1385.6238 C 715.16409,1385.7502 714.97315,1385.8702 714.78799,1385.9988 C 714.43834,1386.2414 714.1019,1386.4985 713.75674,1386.7488 C 713.222,1387.1369 712.6867,1387.53 712.16299,1387.9363 C 711.82853,1388.1957 711.49284,1388.4509 711.16299,1388.7176 C 710.97308,1388.8712 710.78885,1389.0303 710.60049,1389.1863 C 709.38515,1390.1925 708.18619,1391.2394 707.03799,1392.3426 C 706.38107,1392.974 705.73432,1393.6182 705.10049,1394.2801 C 704.664,1394.7358 704.24444,1395.2166 703.81924,1395.6863 C 703.5864,1395.9436 703.36114,1396.2062 703.13174,1396.4676 C 702.71294,1396.9447 702.28884,1397.4144 701.88174,1397.9051 C 701.66928,1398.1612 701.46596,1398.4265 701.25674,1398.6863 C 700.92567,1399.0973 700.61081,1399.5163 700.28799,1399.9363 C 700.03449,1400.266 699.78633,1400.6012 699.53799,1400.9363 C 699.16262,1401.4429 698.77635,1401.9489 698.41299,1402.4676 C 697.90079,1403.1989 697.40073,1403.9316 696.91299,1404.6863 C 695.97576,1406.136 695.09979,1407.6234 694.25674,1409.1551 C 694.19354,1409.2699 694.1319,1409.3836 694.06924,1409.4988 C 693.73887,1410.1065 693.41554,1410.7228 693.10049,1411.3426 C 693.02459,1411.4918 692.92549,1411.6301 692.85049,1411.7801 C 692.54631,1412.3884 692.26468,1413.0043 691.97549,1413.6238 C 691.6136,1414.3982 691.2822,1415.1764 690.94424,1415.9676 C 690.83562,1416.2221 690.70659,1416.4613 690.60049,1416.7176 C 690.58779,1416.7482 690.58191,1416.7806 690.56924,1416.8113 C 690.41378,1417.188 690.28171,1417.5872 690.13174,1417.9676 C 689.91545,1418.5156 689.68025,1419.0685 689.47549,1419.6238 C 689.36887,1419.9133 689.26644,1420.2074 689.16299,1420.4988 C 688.55955,1422.1967 687.99956,1423.9263 687.50674,1425.6863 C 687.36436,1426.1956 687.23334,1426.7034 687.10049,1427.2176 C 686.88185,1428.0624 686.69921,1428.9225 686.50674,1429.7801 C 686.49005,1429.8547 686.46073,1429.9241 686.44424,1429.9988 C 686.20792,1431.0657 685.9829,1432.1323 685.78799,1433.2176 C 685.68084,1433.8157 685.60107,1434.4266 685.50674,1435.0301 C 685.4153,1435.614 685.30477,1436.1913 685.22549,1436.7801 C 685.1976,1436.9875 685.18936,1437.197 685.16299,1437.4051 C 685.05912,1438.2229 684.9618,1439.0473 684.88174,1439.8738 C 684.82967,1440.4134 684.76726,1440.9556 684.72549,1441.4988 C 684.66943,1442.2245 684.63793,1442.9546 684.60049,1443.6863 C 684.58725,1443.9461 684.58011,1444.2071 684.56924,1444.4676 C 684.52189,1445.5979 684.47759,1446.7305 684.47549,1447.8738 C 684.47543,1447.916 684.47549,1447.9566 684.47549,1447.9988 C 684.47549,1448.0093 684.47549,1448.0196 684.47549,1448.0301 C 684.47549,1450.5199 684.57625,1452.98 684.78799,1455.4051 C 684.8934,1456.6072 685.03872,1457.8148 685.19424,1458.9988 C 685.19557,1459.009 685.1929,1459.0199 685.19424,1459.0301 C 685.35018,1460.2138 685.52072,1461.3971 685.72549,1462.5613 C 686.55173,1467.2684 687.7781,1471.7984 689.35049,1476.1238 C 689.73978,1477.1937 690.16876,1478.2372 690.60049,1479.2801 C 691.47433,1481.3925 692.40407,1483.4442 693.44424,1485.4363 C 693.96212,1486.4285 694.51208,1487.3825 695.06924,1488.3426 C 695.07378,1488.3504 695.0647,1488.366 695.06924,1488.3738 C 695.62222,1489.3259 696.19765,1490.2673 696.78799,1491.1863 C 696.79278,1491.1938 696.7832,1491.2101 696.78799,1491.2176 C 697.37872,1492.1365 698.00492,1493.0207 698.63174,1493.9051 C 700.53126,1496.586 702.5802,1499.1004 704.78799,1501.4363 C 705.52199,1502.2132 706.27252,1502.9505 707.03799,1503.6863 C 716.9916,1513.2557 729.52004,1519.2813 743.25674,1520.0926 C 744.32308,1520.1562 745.39563,1520.1863 746.47549,1520.1863 C 747.53435,1520.1857 748.61713,1520.1543 749.66299,1520.0926 C 750.7191,1520.0301 751.74643,1519.9346 752.78799,1519.8113 C 758.48124,1519.1377 763.93639,1517.5632 769.06924,1515.2176 C 769.56859,1514.9896 770.07629,1514.7726 770.56924,1514.5301 C 770.58184,1514.5238 770.5879,1514.505 770.60049,1514.4988 C 771.52742,1514.042 772.44721,1513.5684 773.35049,1513.0613 C 777.8591,1510.5271 782.06065,1507.3599 785.88174,1503.6863 C 786.64721,1502.9505 787.39774,1502.2132 788.13174,1501.4363 C 788.8712,1500.6539 789.58179,1499.8527 790.28799,1499.0301 C 790.98401,1498.2195 791.68803,1497.4094 792.35049,1496.5613 C 792.35563,1496.5547 792.34535,1496.5366 792.35049,1496.5301 C 793.01252,1495.6819 793.66078,1494.8205 794.28799,1493.9363 C 794.29296,1493.9293 794.28302,1493.9121 794.28799,1493.9051 C 794.91481,1493.0207 795.54101,1492.1365 796.13174,1491.2176 C 796.13653,1491.2101 796.12695,1491.1938 796.13174,1491.1863 C 796.72208,1490.2673 797.29751,1489.3259 797.85049,1488.3738 C 797.85503,1488.366 797.84595,1488.3504 797.85049,1488.3426 C 798.40765,1487.3825 798.95761,1486.4285 799.47549,1485.4363 C 799.99774,1484.4361 800.4945,1483.4364 800.97549,1482.4051 C 801.18087,1481.965 801.37154,1481.5068 801.56924,1481.0613 C 801.83159,1480.4695 802.10191,1479.8812 802.35049,1479.2801 C 802.7822,1478.2373 803.17997,1477.1936 803.56924,1476.1238 C 803.57258,1476.1146 803.5659,1476.1018 803.56924,1476.0926 C 803.95815,1475.0225 804.34904,1473.9382 804.69424,1472.8426 C 804.69724,1472.833 804.69124,1472.8208 804.69424,1472.8113 C 805.03902,1471.7155 805.3632,1470.6187 805.66299,1469.4988 C 805.66558,1469.4891 805.6604,1469.4772 805.66299,1469.4676 C 805.9624,1468.3474 806.2536,1467.204 806.50674,1466.0613 C 806.50895,1466.0513 806.50453,1466.04 806.50674,1466.0301 C 806.75945,1464.8873 806.98907,1463.7564 807.19424,1462.5926 C 807.19601,1462.5825 807.19247,1462.5714 807.19424,1462.5613 C 807.60556,1460.2228 807.92002,1457.8196 808.13174,1455.4051 C 808.13264,1455.3947 808.13084,1455.3841 808.13174,1455.3738 C 808.23671,1454.1715 808.32816,1452.9677 808.38174,1451.7488 C 808.38219,1451.7385 808.38129,1451.7279 808.38174,1451.7176 C 808.43488,1450.4984 808.44379,1449.2644 808.44424,1448.0301 C 808.44424,1448.0195 808.44424,1448.0093 808.44424,1447.9988 C 808.44424,1444.0016 808.16935,1440.1008 807.63174,1436.2801 C 807.55491,1435.734 807.46904,1435.197 807.38174,1434.6551 C 807.31673,1434.2513 807.26501,1433.8377 807.19424,1433.4363 C 807.02786,1432.4936 806.82938,1431.584 806.63174,1430.6551 C 806.43302,1429.7188 806.23654,1428.7953 806.00674,1427.8738 C 805.89696,1427.434 805.77973,1426.9977 805.66299,1426.5613 C 805.53601,1426.0863 805.39188,1425.6258 805.25674,1425.1551 C 805.24766,1425.1234 805.23461,1425.0929 805.22549,1425.0613 C 804.97408,1424.1897 804.72317,1423.324 804.44424,1422.4676 C 804.16709,1421.616 803.87297,1420.7721 803.56924,1419.9363 C 803.55799,1419.9053 803.54928,1419.8735 803.53799,1419.8426 C 803.49134,1419.7147 803.429,1419.5951 803.38174,1419.4676 C 802.15119,1416.1492 800.72763,1412.9438 799.10049,1409.9051 C 798.69472,1409.1475 798.27941,1408.3935 797.85049,1407.6551 C 797.83146,1407.6223 797.80707,1407.594 797.78799,1407.5613 C 797.66521,1407.3507 797.53762,1407.1454 797.41299,1406.9363 C 797.0802,1406.3779 796.75884,1405.8268 796.41299,1405.2801 C 796.3205,1405.1338 796.22515,1404.9879 796.13174,1404.8426 C 795.74391,1404.239 795.34774,1403.6501 794.94424,1403.0613 C 794.72709,1402.7442 794.5096,1402.4365 794.28799,1402.1238 C 794.00235,1401.721 793.70593,1401.3318 793.41299,1400.9363 C 793.40424,1400.9245 793.3905,1400.9169 793.38174,1400.9051 C 792.87106,1400.2166 792.35156,1399.5392 791.81924,1398.8738 C 791.31327,1398.2412 790.81296,1397.61 790.28799,1396.9988 C 790.24968,1396.9542 790.2014,1396.9183 790.16299,1396.8738 C 789.74322,1396.3877 789.31326,1395.9084 788.88174,1395.4363 C 788.73314,1395.2737 788.59421,1395.0972 788.44424,1394.9363 C 788.33814,1394.8225 788.23852,1394.7055 788.13174,1394.5926 C 787.6475,1394.0802 787.16102,1393.5871 786.66299,1393.0926 C 786.40702,1392.8384 786.14127,1392.5919 785.88174,1392.3426 C 784.29611,1390.8192 782.65631,1389.3981 780.94424,1388.0613 C 780.59526,1387.7888 780.23568,1387.5133 779.88174,1387.2488 C 779.56071,1387.0091 779.23802,1386.763 778.91299,1386.5301 C 778.80886,1386.4554 778.70503,1386.3853 778.60049,1386.3113 C 778.02458,1385.9039 777.4385,1385.5098 776.85049,1385.1238 C 776.79987,1385.0906 776.74495,1385.0631 776.69424,1385.0301 C 776.04033,1384.6036 775.39374,1384.1794 774.72549,1383.7801 C 774.63361,1383.7251 774.53638,1383.6782 774.44424,1383.6238 C 773.81504,1383.2525 773.17929,1382.9081 772.53799,1382.5613 C 771.88967,1382.2102 771.26073,1381.8555 770.60049,1381.5301 C 770.51704,1381.489 770.43412,1381.4457 770.35049,1381.4051 C 770.16708,1381.3158 769.97229,1381.2423 769.78799,1381.1551 C 768.48045,1380.5362 767.13815,1379.9521 765.78799,1379.4363 C 764.23008,1378.9212 763.58644,1377.8385 763.47549,1376.4676 C 763.457,1374.0938 764.7429,1371.0949 765.19424,1368.4988 C 765.22005,1368.405 765.26317,1368.3108 765.28799,1368.2176 C 765.27878,1368.2189 765.26602,1368.216 765.25674,1368.2176 C 765.26929,1368.1335 765.27758,1368.0506 765.28799,1367.9676 L 764.50674,1368.3426 L 769.94424,1363.4988 L 769.41299,1363.4988 L 770.56924,1362.9363 L 769.75674,1362.3738 L 765.00674,1357.5613 L 763.72549,1358.1238 L 763.69424,1358.0926 L 764.91299,1357.5301 L 756.78799,1351.8426 L 737.60049,1351.2801 z M 750.03799,1387.9051 C 765.34419,1387.9051 779.21351,1395.0527 789.31924,1406.6551 C 795.33331,1417.0443 798.85049,1429.5384 798.85049,1442.9988 C 798.85044,1478.9629 773.77417,1508.1551 742.88174,1508.1551 C 727.54533,1508.1551 713.64872,1500.9541 703.53799,1489.3113 C 697.55774,1478.941 694.06924,1466.4492 694.06924,1453.0301 C 694.06926,1417.066 719.14556,1387.9051 750.03799,1387.9051 z"
           id="path3939"
           transform="matrix(0.7928273,0,-0.1991449,0.7335799,426.54154,405.00813)" />
        <path
           style="fill:#7a7a7a;fill-opacity:1;stroke:none;stroke-width:1;stroke-linejoin:round;stroke-miterlimit:4;stroke-dasharray:none;stroke-opacity:1"
           d="M 725.32431,1350.6262 L 716.7411,1355.7824 L 718.36103,1357.2512 L 718.21596,1357.3449 L 716.57185,1356.0012 L 712.17145,1361.0637 L 713.04186,1361.7824 L 712.75172,1361.7824 L 712.07474,1361.2512 L 716.185,1366.5012 C 716.1116,1366.4734 716.03333,1366.4499 715.9674,1366.4387 L 716.91035,1371.4387 L 717.90165,1378.4387 C 717.42054,1378.6643 716.94963,1378.9098 716.47514,1379.1574 C 716.44208,1379.1747 716.41146,1379.2026 716.37843,1379.2199 C 715.89008,1379.4766 715.40876,1379.7528 714.92775,1380.0324 C 714.6684,1380.1833 714.41119,1380.3437 714.15405,1380.5012 C 713.75067,1380.7479 713.34298,1380.9885 712.94515,1381.2512 C 712.79701,1381.349 712.65728,1381.4636 712.50994,1381.5637 C 712.06616,1381.8648 711.61664,1382.1493 711.18015,1382.4699 C 710.58596,1382.9069 709.99529,1383.3725 709.41515,1383.8449 C 709.39044,1383.8651 709.36731,1383.8872 709.34262,1383.9074 C 708.67639,1384.4522 708.03092,1385.036 707.38419,1385.6262 C 707.31329,1385.6909 707.23725,1385.7485 707.16659,1385.8137 C 706.72592,1386.2206 706.29211,1386.6362 705.86098,1387.0637 C 705.49732,1387.424 705.12963,1387.7828 704.77297,1388.1574 C 704.65831,1388.2779 704.54839,1388.4105 704.43447,1388.5324 C 703.49417,1389.5387 702.59071,1390.5855 701.70235,1391.6887 C 701.18965,1392.3252 700.67368,1392.9587 700.17914,1393.6262 C 700.10377,1393.7279 700.03647,1393.8362 699.96153,1393.9387 C 699.49427,1394.5773 699.05775,1395.2419 698.60756,1395.9074 C 698.40509,1396.2067 698.20205,1396.5091 698.00311,1396.8137 C 697.67985,1397.3088 697.34974,1397.8048 697.03599,1398.3137 C 696.85719,1398.6037 696.67973,1398.8943 696.50407,1399.1887 C 696.40992,1399.3464 696.30717,1399.4984 696.21394,1399.6574 C 695.86572,1400.2515 695.53372,1400.8588 695.19846,1401.4699 C 694.73547,1402.3136 694.28209,1403.1573 693.84449,1404.0324 C 693.81889,1404.0836 693.79745,1404.1374 693.77195,1404.1887 C 693.36708,1405.0028 692.96947,1405.8485 692.58723,1406.6887 C 692.3857,1407.1318 692.20204,1407.5823 692.00696,1408.0324 C 691.84788,1408.3992 691.67813,1408.7548 691.5234,1409.1262 C 691.28263,1409.7045 691.0523,1410.287 690.82223,1410.8762 C 690.68175,1411.2358 690.54765,1411.6064 690.4112,1411.9699 C 690.26695,1412.3545 690.11568,1412.7373 689.976,1413.1262 C 689.29044,1415.0334 688.66163,1416.9957 688.09011,1419.0012 C 688.01003,1419.2824 687.92609,1419.5619 687.84833,1419.8449 C 687.01343,1422.8812 686.32535,1426.0235 685.76902,1429.2512 C 685.76347,1429.2835 685.75036,1429.3126 685.74484,1429.3449 C 685.562,1430.4118 685.3879,1431.4784 685.2371,1432.5637 C 685.22565,1432.6463 685.22418,1432.731 685.21292,1432.8137 C 685.06506,1433.8967 684.91709,1434.9949 684.8019,1436.0949 C 684.78133,1436.2921 684.77304,1436.491 684.75354,1436.6887 C 684.53537,1438.8921 684.40081,1441.1128 684.31834,1443.3762 C 684.31304,1443.5221 684.29888,1443.6675 684.29416,1443.8137 C 684.25752,1444.944 684.22325,1446.0767 684.22162,1447.2199 C 684.22158,1447.2621 684.22162,1447.3028 684.22162,1447.3449 C 684.22162,1447.3554 684.22162,1447.3657 684.22162,1447.3762 C 684.22197,1448.6105 684.25304,1449.8445 684.29416,1451.0637 C 684.54119,1458.4517 685.53045,1465.549 687.14717,1472.1887 C 687.41423,1473.2843 687.69251,1474.3686 687.9934,1475.4387 C 687.996,1475.4479 687.9908,1475.4607 687.9934,1475.4699 C 688.29459,1476.5398 688.62649,1477.5834 688.96052,1478.6262 C 688.96338,1478.6351 688.95766,1478.6485 688.96052,1478.6574 C 689.29487,1479.7002 689.65816,1480.737 690.02436,1481.7512 C 694.08673,1493.0092 700.05456,1502.4589 707.31166,1509.0949 C 707.31691,1509.0997 707.33059,1509.0901 707.33584,1509.0949 C 709.30862,1510.8973 711.37983,1512.5102 713.52542,1513.8762 C 714.24258,1514.333 714.96698,1514.7524 715.70144,1515.1574 C 720.84269,1517.9911 726.39938,1519.5637 732.19087,1519.5637 C 737.16574,1519.5637 741.94289,1518.4003 746.45592,1516.2824 C 747.95743,1515.579 749.42199,1514.7899 750.85632,1513.8762 C 753.00782,1512.5064 755.0682,1510.9034 757.0459,1509.0949 C 758.35523,1507.897 759.64279,1506.5953 760.86604,1505.2199 C 760.87457,1505.2103 760.88168,1505.1983 760.89021,1505.1887 C 761.49726,1504.5052 762.09503,1503.7887 762.67939,1503.0637 C 762.68761,1503.0535 762.69534,1503.0427 762.70357,1503.0324 C 763.28759,1502.3069 763.85986,1501.5793 764.42021,1500.8137 C 764.42796,1500.8031 764.43664,1500.793 764.44439,1500.7824 C 765.00453,1500.0161 765.55301,1499.2124 766.08849,1498.4074 C 766.09586,1498.3964 766.10532,1498.3873 766.11267,1498.3762 C 766.65114,1497.5657 767.17175,1496.7555 767.68425,1495.9074 C 767.68822,1495.9009 767.68027,1495.8828 767.68425,1495.8762 C 768.06377,1495.2477 768.43164,1494.587 768.79644,1493.9387 C 768.92836,1493.704 769.07751,1493.4884 769.20746,1493.2512 C 769.68982,1492.3716 770.15505,1491.4775 770.60979,1490.5637 C 770.61572,1490.5518 770.62804,1490.5444 770.63397,1490.5324 C 771.09071,1489.6134 771.53592,1488.672 771.96376,1487.7199 C 771.96733,1487.712 771.9602,1487.6966 771.96376,1487.6887 C 772.39127,1486.7365 772.79921,1485.7974 773.19684,1484.8137 C 773.20016,1484.8055 773.19352,1484.7907 773.19684,1484.7824 C 773.5942,1483.7985 773.99089,1482.7964 774.35739,1481.7824 C 774.36048,1481.7739 774.35429,1481.7598 774.35739,1481.7512 C 774.72359,1480.737 775.08688,1479.7002 775.42122,1478.6574 C 775.4241,1478.6484 775.41834,1478.6352 775.42122,1478.6262 C 775.5497,1478.2251 775.66022,1477.8126 775.78389,1477.4074 C 775.98482,1476.7485 776.20034,1476.1081 776.38834,1475.4387 C 776.68923,1474.3686 776.96751,1473.2843 777.23457,1472.1887 C 777.2369,1472.1792 777.23225,1472.167 777.23457,1472.1574 C 777.77041,1469.9563 778.24351,1467.7027 778.6369,1465.4074 C 778.63861,1465.3974 778.63519,1465.3862 778.6369,1465.3762 C 778.83242,1464.2334 779.01008,1463.1026 779.16882,1461.9387 C 779.17019,1461.9286 779.16746,1461.9175 779.16882,1461.9074 C 779.32725,1460.7432 779.48337,1459.56 779.60402,1458.3762 C 779.60506,1458.366 779.60299,1458.3551 779.60402,1458.3449 C 779.72435,1457.1609 779.8126,1455.9533 779.89416,1454.7512 C 779.89486,1454.7409 779.89346,1454.7303 779.89416,1454.7199 C 779.97538,1453.5176 780.04613,1452.3139 780.08758,1451.0949 C 780.08793,1451.0846 780.08724,1451.074 780.08758,1451.0637 C 780.12905,1449.8342 780.16012,1448.5898 780.16012,1447.3449 C 780.16012,1446.3533 780.13813,1445.3893 780.11176,1444.4074 C 780.105,1444.1575 780.09603,1443.9067 780.08758,1443.6574 C 780.08161,1443.4804 780.07022,1443.3029 780.06341,1443.1262 C 780.0224,1442.0681 779.96517,1441.0154 779.89416,1439.9699 C 779.89275,1439.9491 779.89558,1439.9283 779.89416,1439.9074 C 779.84014,1439.1188 779.77151,1438.3446 779.70074,1437.5637 C 779.64297,1436.9242 779.57615,1436.2914 779.50731,1435.6574 C 779.4349,1434.9922 779.34995,1434.3164 779.26553,1433.6574 C 779.22857,1433.3685 779.20806,1433.0701 779.16882,1432.7824 C 779.04009,1431.8398 778.88653,1430.9301 778.73361,1430.0012 C 778.42675,1428.1324 778.09557,1426.3095 777.69396,1424.5012 C 777.63518,1424.2366 777.56129,1423.9832 777.50053,1423.7199 C 776.94094,1421.2944 776.31212,1418.9265 775.59047,1416.6262 C 775.53448,1416.4476 775.47816,1416.2727 775.42122,1416.0949 C 775.00776,1414.8045 774.55351,1413.5289 774.09143,1412.2824 C 773.79988,1411.4963 773.50712,1410.7064 773.19684,1409.9387 C 773.10217,1409.7043 773.00309,1409.4838 772.9067,1409.2512 C 772.59795,1408.5062 772.28984,1407.759 771.96376,1407.0324 C 771.94359,1406.9875 771.91146,1406.9523 771.89123,1406.9074 C 771.54408,1406.1376 771.19351,1405.3744 770.82739,1404.6262 C 770.09718,1403.135 769.33303,1401.683 768.53048,1400.2824 C 768.25154,1399.7956 767.97158,1399.3204 767.68425,1398.8449 C 767.55599,1398.6326 767.42731,1398.4299 767.2974,1398.2199 C 767.2441,1398.1338 767.18173,1398.0557 767.12815,1397.9699 C 765.0699,1394.6757 762.81704,1391.6683 760.38248,1389.0012 C 759.92749,1388.5026 759.47121,1388.0072 759.00433,1387.5324 C 758.95875,1387.4861 758.90495,1387.4535 758.85926,1387.4074 C 758.58925,1387.1349 758.31105,1386.8594 758.0372,1386.5949 C 757.78882,1386.3552 757.53916,1386.1092 757.28769,1385.8762 C 757.20712,1385.8015 757.12679,1385.7314 757.0459,1385.6574 C 756.60032,1385.25 756.14688,1384.8559 755.69193,1384.4699 C 755.65277,1384.4367 755.61028,1384.4093 755.57104,1384.3762 C 755.06512,1383.9498 754.56485,1383.5255 754.04783,1383.1262 C 753.95086,1383.0512 753.85504,1382.9814 753.75769,1382.9074 C 753.3017,1382.5611 752.84373,1382.2322 752.37954,1381.9074 C 751.87723,1381.5559 751.36788,1381.202 750.85632,1380.8762 C 750.79176,1380.8351 750.7276,1380.7919 750.6629,1380.7512 C 750.08575,1380.388 749.51041,1380.0497 748.92208,1379.7199 C 748.32325,1379.3842 747.71859,1379.0828 747.10873,1378.7824 C 745.91944,1378.2638 745.42905,1377.2075 745.34373,1375.8449 C 745.32995,1373.5585 746.26726,1370.6547 746.64934,1368.1262 C 746.65437,1368.0929 746.66869,1368.0656 746.67352,1368.0324 C 746.70655,1367.8799 746.73913,1367.7148 746.77023,1367.5637 C 746.75428,1367.5667 746.7381,1367.5911 746.72188,1367.5949 C 746.73316,1367.4993 746.76108,1367.408 746.77023,1367.3137 L 746.09325,1367.7199 L 750.34859,1362.8449 L 749.93756,1362.8449 L 749.98591,1362.7824 L 750.83215,1362.2824 L 750.27605,1361.7824 L 746.55263,1356.9074 L 745.53715,1357.4699 L 745.51298,1357.4387 L 746.45592,1356.8762 L 740.16963,1351.1887 L 725.32431,1350.6262 z M 734.94717,1387.2512 C 746.84101,1387.2512 757.60843,1394.4972 765.43569,1406.1887 C 770.03953,1416.5422 772.73746,1428.9624 772.73746,1442.3449 C 772.73744,1478.309 753.33597,1507.5012 729.43457,1507.5012 C 717.54073,1507.5012 706.7733,1500.2552 698.94606,1488.5637 C 694.34221,1478.2102 691.64429,1465.7588 691.64429,1452.3762 C 691.6443,1416.4121 711.04577,1387.2512 734.94717,1387.2512 z"
           id="path4547" />
        <g
           id="g3554"
           transform="matrix(0.4830772,0,0,0.70164,403.87691,960.22004)"
           style="stroke:none">
          <path
             id="path3556"
             d="M 678.05022,590.03013 C 623.24451,590.03013 578.76896,636.09674 578.76897,692.87388 C 578.76897,749.65098 623.24451,795.74888 678.05022,795.74888 C 732.85593,795.74888 777.33151,749.65098 777.33151,692.87388 C 777.33151,636.09674 732.85593,590.03011 678.05022,590.03013 z M 672.33147,592.87388 C 721.80888,592.8739 761.95651,634.49173 761.95651,685.74888 C 761.95641,737.00608 721.80886,778.59258 672.33147,778.59258 C 622.8541,778.59258 582.70647,737.00608 582.70647,685.74888 C 582.70647,634.49173 622.85408,592.87388 672.33147,592.87388 z"
             style="fill:url(#linearGradient3588);fill-opacity:1;stroke:none;stroke-width:1;stroke-linejoin:round;stroke-miterlimit:4;stroke-dasharray:none;stroke-opacity:1" />
          <g
             transform="matrix(1.5399575,0,0,1.1418452,-378.04412,-877.88622)"
             id="g3558"
             style="stroke:none">
            <path
               style="fill:url(#linearGradient3590);fill-opacity:1;fill-rule:evenodd;stroke:none;stroke-width:1.13936281;stroke-linecap:butt;stroke-linejoin:miter;stroke-miterlimit:4;stroke-dasharray:none;stroke-opacity:1"
               d="M 659.48293,1268.8116 L 710.20182,1270.142 L 684.14918,1298.0129 L 659.48293,1268.8116 z"
               id="path3560"
               sodipodi:nodetypes="cccc" />
            <path
               sodipodi:type="star"
               style="opacity:1;fill:url(#linearGradient3592);fill-opacity:1;stroke:none;stroke-width:1.13474822;stroke-linejoin:round;stroke-miterlimit:4;stroke-dasharray:none;stroke-opacity:1"
               id="path3562"
               sodipodi:sides="6"
               sodipodi:cx="657.85712"
               sodipodi:cy="1258.7908"
               sodipodi:r1="16.150599"
               sodipodi:r2="8.0752993"
               sodipodi:arg1="0.61253756"
               sodipodi:arg2="1.1361363"
               inkscape:flatsided="true"
               inkscape:rounded="0"
               inkscape:randomized="0"
               d="M 671.0714,1268.0765 L 656.4226,1274.8775 L 643.20831,1265.5918 L 644.64283,1249.5051 L 659.29164,1242.704 L 672.50592,1251.9897 L 671.0714,1268.0765 z"
               transform="matrix(1.3915136,0.3137173,-0.803391,0.5433743,780.8838,378.16844)" />
            <path
               style="fill:url(#linearGradient3594);fill-opacity:1;fill-rule:evenodd;stroke:none;stroke-width:1.13936281px;stroke-linecap:butt;stroke-linejoin:miter;stroke-opacity:1"
               d="M 664.80664,1261.59 L 658.872,1267.9034 L 670.10995,1276.7423 L 673.39294,1268.0298 L 664.80664,1261.59 z"
               id="path3564"
               sodipodi:nodetypes="ccccc" />
            <path
               style="fill:url(#linearGradient3596);fill-opacity:1;fill-rule:evenodd;stroke:none;stroke-width:1.13936281px;stroke-linecap:butt;stroke-linejoin:miter;stroke-opacity:1"
               d="M 673.1404,1268.156 L 693.46972,1269.1662 L 695.9951,1277.6262 L 670.23621,1276.7423 L 673.1404,1268.156 z"
               id="path3566" />
            <path
               style="fill:url(#linearGradient3598);fill-opacity:1;fill-rule:evenodd;stroke:none;stroke-width:1.13936281px;stroke-linecap:butt;stroke-linejoin:miter;stroke-opacity:1"
               d="M 693.46972,1268.9136 L 705.08648,1262.7265 L 710.57919,1269.4187 L 696.62645,1277.4999 L 693.46972,1268.9136 z"
               id="path3568"
               sodipodi:nodetypes="ccccc" />
            <path
               style="fill:url(#linearGradient3600);fill-opacity:1;fill-rule:evenodd;stroke:none;stroke-width:1.13936281px;stroke-linecap:butt;stroke-linejoin:miter;stroke-opacity:1"
               d="M 710.07411,1269.6713 L 683.87328,1298.3344 L 695.93197,1277.6262 L 710.07411,1269.6713 z"
               id="path3570"
               sodipodi:nodetypes="cccc" />
            <path
               style="fill:url(#linearGradient3602);fill-opacity:1;fill-rule:evenodd;stroke:none;stroke-width:1.13936281px;stroke-linecap:butt;stroke-linejoin:miter;stroke-opacity:1"
               d="M 695.86884,1277.7525 L 684.12581,1298.0818 L 669.98368,1276.9949 L 695.86884,1277.7525 z"
               id="path3572" />
            <path
               style="fill:url(#linearGradient3604);fill-opacity:1;fill-rule:evenodd;stroke:none;stroke-width:1.13936281px;stroke-linecap:butt;stroke-linejoin:miter;stroke-opacity:1"
               d="M 658.74573,1268.156 L 684.25208,1298.4606 L 670.10995,1276.4898 L 658.74573,1268.156 z"
               id="path3574" />
            <path
               transform="matrix(1.0748561,0.2423266,-0.6205683,0.4197216,759.06397,574.25511)"
               d="M 671.0714,1268.0765 L 656.4226,1274.8775 L 643.20831,1265.5918 L 644.64283,1249.5051 L 659.29164,1242.704 L 672.50592,1251.9897 L 671.0714,1268.0765 z"
               inkscape:randomized="0"
               inkscape:rounded="0"
               inkscape:flatsided="true"
               sodipodi:arg2="1.1361363"
               sodipodi:arg1="0.61253756"
               sodipodi:r2="8.0752993"
               sodipodi:r1="16.150599"
               sodipodi:cy="1258.7908"
               sodipodi:cx="657.85712"
               sodipodi:sides="6"
               id="path3576"
               style="opacity:1;fill:url(#radialGradient3606);fill-opacity:1;stroke:none;stroke-width:1.46905112;stroke-linejoin:round;stroke-miterlimit:4;stroke-dasharray:none;stroke-opacity:1"
               sodipodi:type="star" />
          </g>
          <path
             sodipodi:nodetypes="cssccssscccsssc"
             id="path3578"
             d="M 708.20982,579.16071 C 704.19613,579.68286 696.0536,588.69438 689.31606,588.18077 C 660.07323,585.95157 689.79767,587.84149 659.31504,586.10222 C 656.22299,585.9258 647.84657,577.92255 644.45535,577.52678 L 649.09821,594.48214 C 608.40069,607.33271 578.75445,646.57374 578.75446,692.91964 C 578.75444,749.69681 623.23,795.76339 678.03571,795.76339 C 732.8414,795.76341 777.31691,749.69679 777.31691,692.91964 C 777.31701,647.327 748.6507,608.61864 708.97321,595.13839 C 702.31947,593.18054 706.27203,585.64042 708.20982,579.16071 z M 683.75446,607.20089 C 733.23181,607.2009 773.37951,648.78744 773.37951,700.04464 C 773.37951,751.30181 733.23185,792.91964 683.75446,792.91964 C 634.27703,792.91967 594.12946,751.30179 594.12946,700.04464 C 594.12946,648.78746 634.27707,607.20089 683.75446,607.20089 z"
             style="fill:url(#linearGradient3608);fill-opacity:1;stroke:none;stroke-width:1;stroke-linejoin:round;stroke-miterlimit:4;stroke-dasharray:none;stroke-opacity:1" />
          <path
             sodipodi:nodetypes="ccccccc"
             id="path3580"
             d="M 645,577.71932 L 657.5,586.29075 L 688.75,587.00504 L 708.21429,578.79075 C 707.34326,584.97204 701.63365,593.19062 708.92857,595.93361 C 686.57557,600.6102 666.16621,601.01081 648.57143,595.21932 L 645,577.71932 z"
             style="fill:url(#radialGradient3610);fill-opacity:1;fill-rule:evenodd;stroke:none;stroke-width:1px;stroke-linecap:butt;stroke-linejoin:miter;stroke-opacity:1" />
        </g>
        <path
           style="opacity:1;fill:url(#radialGradient3647);fill-opacity:1;stroke:none;stroke-width:0.9000001;stroke-linejoin:round;stroke-miterlimit:4;stroke-opacity:1"
           d="M 853.02943,1471.2198 C 823.46962,1505.3782 604.49778,1509.4545 575.37858,1471.5522 C 618.29675,1471.7426 651.49253,1466.5689 682.17255,1454.9383 C 708.12667,1445.0993 728.04381,1451.6299 756.71919,1434.6822 C 763.59689,1430.6174 776.97942,1429.3964 782.30496,1425.5262 C 791.89289,1418.5585 805.47806,1403.7353 815.39448,1402.5534 C 847.55383,1429.5348 863.67016,1453.2472 853.02943,1471.2198 z"
           id="path3627"
           sodipodi:nodetypes="ccssscc" />
        <path
           style="fill:url(#linearGradient3616);fill-opacity:1;fill-rule:evenodd;stroke:none;stroke-width:1px;stroke-linecap:butt;stroke-linejoin:miter;stroke-opacity:1"
           d="M 565.00001,1451.6479 L 565.71429,1495.2193 C 560.56766,1548.7504 865.48137,1548.4655 862.50001,1499.1479 C 864.1539,1488.7022 862.35914,1469.0602 862.20414,1453.7908 C 873.53396,1509.3266 560.96972,1509.9107 565.00001,1451.6479 z"
           id="path3550"
           sodipodi:nodetypes="ccccc" />
      </g>
    </g>
  </g>
</svg>
