<svg xmlns="http://www.w3.org/2000/svg" viewBox="0 0 362 446"><style>.a{fill:#3E839A;}.b{fill:#80AFBB;}.c{fill:#F38480;}.d{fill:#EF535D;}.e{fill:#FFF;}.f{fill:#3F8087;}</style><path d="M181.7 355.3c0.1 0.1 0.1 0.1 0.2 0.2 0.5-0.5 1-0.9 1.5-1.4 5.8-5.8 12.1-11 18.9-15.5 4.7-3.1 9.5-6 14.5-8.7 8.7-4.9 17.3-9.7 26.3-14 8.1-3.9 16-8.2 23.8-12.8 14-8.2 27.4-17.3 40.1-27.4 5.8-4.6 11.6-9.2 16.9-14.4 1.6-1.5 3.1-3.1 4.6-4.7 1.6-1.8 3.1-3.7 4.2-5.8 0.3-0.6 0.6-1.3 0.7-2 0.1-0.3-0.1-0.7-0.4-0.9 -0.2-0.1-0.7-0.1-1 0.1 -0.7 0.6-1.4 1.2-2 1.8 -6.3 6.6-13.2 12.5-20.3 18.2 -7 5.7-14.2 11.2-21.3 16.7 -5.2 4.1-10.5 8.1-16 11.7 -9.7 6.4-19.7 12.3-30 17.7 -4.7 2.5-9.3 5-13.9 7.6 -3.9 2.2-7.8 4.6-11.7 6.8 -5.8 3.2-11.4 6.8-16.8 10.6 -6.3 4.4-12 9.6-17.4 15C182.2 354.6 182 355 181.7 355.3L181.7 355.3zM163.3 372.4c1.2-3.2 2.3-6.5 3.5-9.7 0.3-0.7 0.7-1.4 1-2.1 1.4-2.9 2.8-5.8 4.3-8.7 1.6-3.2 3.3-6.5 5-9.7 0.8-1.5 1.8-2.8 2.6-4.3 1.8-3.3 3.5-6.7 5.2-10.1 0.4-0.9 0.8-1.8 1.3-2.6 1.2-1.6 1.9-3.6 3.2-5.2 0.5-0.6 0.9-1.4 1.5-2 0.7-0.8 1.5-1.5 2.2-2.2 1.2-1.1 2.4-2.1 3.7-3.1 1.7-1.2 3.5-2.4 5.2-3.5 0.5-0.3 1.1-0.6 1.6-0.9 0.4-0.2 0.9-0.5 1.3-0.7 0.2-0.1 0.3-0.4 0.4-0.4 2.6-0.7 4.6-2.7 7.1-3.7 1.3-0.5 2.6-1.1 3.6-2.1 0.2-0.2 0.6-0.4 0.9-0.5 2.8-1.2 5.3-3 7.8-4.7 0.8-0.6 1.5-1.4 2.5-1.7 0.4-0.9 1.7-0.9 2.2-1.9 0.2-0.3 0.7-0.4 1-0.7 1.7-1.6 3.7-2.9 5.4-4.5 0.4-0.3 0.8-0.6 1.2-0.9 0.3-0.2 0.6-0.3 0.8-0.6 0.4-0.6 0.9-1 1.6-1.2 0.7-0.2 0.9-1 1.6-1.3 1-0.5 1.8-1.4 2.8-2 1.9-1.3 3.9-2.6 5.8-3.8 0.7-0.5 1.5-0.9 2.3-1.3 0.7-0.4 1.4-0.9 2.1-1.3 5.1-2.4 9.9-5.2 15.4-6.9 2.4-0.7 4.8-1.6 7.2-2.5 2-0.8 4-1.5 5.7-2.6 1.5-0.9 3.2-1.5 4.6-2.7 0.5-0.4 1.2-0.6 1.9-0.9 0.6-0.2 0.8-0.9 1.6-1 0.3 0 0.5-0.2 0.7-0.4 1.7-1.4 3.8-2 5.6-3.1 1.4-0.9 2.8-1.7 4.3-2.4 4.4-2.1 8.8-4.3 13.2-6.5 1.1-0.6 2.1-1.3 3.3-1.9 1.5-0.8 3-1.5 4.5-2.2 1.4-0.7 2.8-1.4 4.2-2 1.3-0.5 2.6-1 4-1.4 3.8-1 7 0.1 9.5 3 1.5 1.8 2.1 3.9 2.4 6.2 0.4 3.7-0.1 7.3-1.1 10.9 -1.1 4-2.7 7.9-4.7 11.5 -2.4 4.2-5 8.1-8 11.9 -2.7 3.3-5.7 6.3-8.8 9.1 -6 5.3-12.3 10-19 14.3 -5.9 3.8-12.2 6.7-18.7 9.2 -9.3 3.6-18.6 7.3-27.8 11.3 -9.9 4.3-19.6 9-28.9 14.3 -4.4 2.5-8.7 5.2-12.9 7.9 -7.5 4.7-14.7 9.8-21.9 15 -2.7 2-5.3 4.2-7.8 6.4 -3.3 2.8-6.2 5.9-8.8 9.3 -1.5 1.9-3 3.7-4.4 5.6 -0.7 0.9-1.3 1.9-2 2.9 -0.4 0.9-0.9 1.9-1.3 2.8 -0.2 0.4-0.3 0.8-0.5 1.1 -0.3 0.6-0.8 1-1.5 0.9 -0.7-0.1-1.1-0.6-1.3-1.2 -0.2-0.5-0.3-0.9-0.3-1.4 0-2-0.2-3.9-0.4-5.8 -0.1-0.6 0-1.1 0-1.7C162.1 379 162.4 375.6 163.3 372.4L163.3 372.4z" class="a"/><path d="M13.5 276c0.2 0.6 0.3 0.8 0.4 1 2.3 2.7 4.7 5.3 7.3 7.6 5.8 5.3 11.7 10.6 17.4 16 6.2 5.8 12.7 11.2 19.4 16.3 4.4 3.4 8.7 6.9 12.8 10.8 2.1 2 4.3 4.1 6.5 6 9.1 7.7 18.2 15.5 28.2 22.3 0.4 0.2 0.7 0.5 1 0.7 4.8 3.6 9.7 7 14.2 11 1.6 1.5 3.1 3 4.7 4.6 0.2 0.2 0.4 0.4 0.7 0 -0.4-0.5-0.8-0.9-1.3-1.4 -4.1-4.2-8.4-8.1-13-11.7 -7.7-6-15.6-11.8-23-18.3 -5.1-4.5-10.3-9-15-14 -3.7-4-7.8-7.5-12-11 -5.5-4.5-11-9.1-16.4-13.7 -4.5-3.9-8.8-7.9-13.2-11.8 -4.8-4.3-9.7-8.4-14.8-12.3 -0.8-0.6-1.6-1.2-2.4-1.7C14.7 276.3 14.2 276.2 13.5 276L13.5 276zM129.9 377.3l0.1 0 -0.1 0c-0.1-0.3-0.2-0.6-0.3-0.9 -1-1.1-1.9-2.2-2.9-3.2 0 0-0.2 0-0.5 0.1 0.4 0.4 0.7 0.9 1.1 1.2 0.6 0.6 1.3 1.3 1.9 1.9 0.1 0.1 0.3 0 0.4 0C129.7 376.7 129.8 377 129.9 377.3L129.9 377.3zM156.4 402.6c-1-0.4-1.9-0.9-2.9-1.2 -1.3-0.5-2.6-1-4-1.5 -0.1 0-0.2-0.2-0.3-0.3 -0.8-0.5-1.5-0.9-2.3-1.4 -0.7-0.4-1.4-0.8-2.2-1.1 -0.8-0.4-1.6-0.8-2.5-1.2 -2.2-0.9-4.3-1.6-6.5-2.5 -0.6-0.2-1.1-0.5-1.6-0.9 -0.8-0.7-2.1-0.7-2.8-1.6 -2.2-0.9-3.9-2.6-6.3-3.3 -0.6-0.2-1.1-0.8-1.7-1.1 -1.7-1.1-3.5-2.1-5.2-3.2 -1.5-0.9-2.9-2-4.5-2.8 -0.7-0.3-1.3-0.8-2-1.1 -1.3-0.6-2.6-1.1-3.8-1.8 -2.4-1.3-5-2.2-7.2-3.7 -1.4-0.9-3-1.6-4.4-2.7 -1.3-1-2.7-1.8-4-2.8 -5.3-4.3-7.6-6.4-11.9-11.4 -0.6-0.7-1.3-1.3-1.9-1.9 -0.4-0.5-0.8-0.9-1.2-1.4 -0.9-1.1-1.6-2.3-2.8-3.1 -0.3-0.2-0.6-0.6-0.9-0.9 -1.6-1.6-3.3-3.3-4.9-4.9 -0.4-0.4-0.9-0.9-1.3-1.4 -0.4-0.4-0.8-0.7-1.3-1 -0.2-0.2-0.5-0.3-0.7-0.5 -1.4-1.5-3-2.6-4.6-3.8 -1.4-1.1-2.7-2.3-4.3-3.1 -1.4-1.6-3.6-2.2-5.1-3.8 -2.5-1.1-4.4-2.9-6.7-4.2 -2.3-1.3-4.5-2.8-6.7-4.2 -2.9-1.9-5.7-3.8-8.5-5.8 -0.9-0.7-2-1.1-2.7-2.1 -1.3-0.4-2-1.7-3.1-2.3 -0.5-0.3-1-0.8-1.4-1.3 -1.9-2.2-4.1-4.2-6.2-6.3 -0.4-0.4-0.7-0.9-1.1-1.3 -0.5-0.6-1.1-1.1-1.5-1.7 -1.1-1.4-2.2-2.7-3.1-4.2 -1.2-1.8-2.4-3.6-3.4-5.5 -0.9-1.7-1.6-3.4-2.3-5.2 -1.1-2.7-1.8-5.5-2.1-8.4 -0.2-2.2 0-4.3 0.6-6.5 0.3-1 0.8-1.9 1.5-2.7 0.8-0.9 1.6-1.7 2.7-2.2 2.6-1.3 5.3-1.8 8.2-1.6 8.2 0.4 15.8 2.6 22.8 6.8 4.2 2.5 8.1 5.3 11.9 8.4 0.8 0.7 1.6 1.4 2.3 2.2 2.1 2.1 4.2 4.2 6.3 6.3 3.3 3.4 6.8 6.6 10.4 9.5 2.5 2 5.1 3.8 7.7 5.5 4.2 2.8 8.1 5.9 11.5 9.5 0.8 0.9 1.7 1.7 2.5 2.6 4 4.3 8.4 8.1 13.3 11.3 4.2 2.8 8.3 5.9 12.1 9.1 4.9 4.1 9.1 9 12.2 14.7 2.2 4 4.5 8 6.6 12 2.3 4.4 5.1 8.4 8.3 12.2 0 0 0.2 0.1 0.2 0.1l0 0.2 -0.1-0.1c1.3 2 2.8 3.8 4 5.9 1.1 1.8 2.3 3.5 3.6 5.2 2.2 2.7 4 5.6 5.3 8.8 0.5 1.2 1.1 2.3 1.8 3.3C159.4 401.4 158.9 402.3 156.4 402.6L156.4 402.6z" class="a"/><path d="M118.5 305.5c-0.1-0.3-0.2-0.6-0.3-0.9 -0.3-0.3-0.6-0.5-0.9-0.8 0-0.7-0.4-1.2-0.8-1.7 -1.2-1.8-2.4-3.6-3.5-5.5 -2.1-3.8-4.5-7.5-6.9-11.1 -2.7-4-5.3-8-8-11.9 -2-3-3.9-6.2-5.6-9.5 -2.6-5.1-5.1-10.2-7.6-15.3 -3.7-7.7-6.8-15.6-8.7-24 -1.1-5.1-2.4-10.1-3.5-15.2 -2.2-9.4-3.3-18.9-3.5-28.5 -0.1-6.9 0-13.8 0-20.7 0-1.3 0.1-2.5 0-3.8 -0.1-0.8 0.4-1.9-0.8-2.4 -0.8 0.5-0.8 1.5-0.8 2.3 -0.4 3.1-0.7 6.3-0.9 9.5 -0.1 2.1-0.1 4.2-0.2 6.3 -0.5 12.1 0 24.1 2.1 36 2.4 13.3 6.5 25.9 12.6 37.9 2.1 4 4.1 8 6.2 12 2.8 5.3 5.8 10.6 9.2 15.6 5.1 7.4 10.1 14.8 15.1 22.2 1.8 2.6 3.7 5.2 5.5 7.7 0.2 0.4 0.4 0.8 0.9 0.8 0.1 0.3 0.2 0.6 0.3 0.9 0.1 0.1 0.2 0.2 0.2 0.3 0 0.1 0.1 0.1 0.1 0.1 0-0.1 0-0.2-0.1-0.3C118.7 305.5 118.6 305.5 118.5 305.5L118.5 305.5zM134.7 336.2c-1.2-1.4-2.1-3-3.8-3.7 -0.9-1.2-2.6-1.5-3.2-2.9 -1.7-0.8-3-2.2-4.4-3.3 -1-0.8-2.4-1.2-3-2.5 -1.5-0.5-2.1-2.3-3.6-2.7 -1.3-1.7-3.3-2.5-4.6-4.2 -1.2-1.6-2.8-2.8-4.2-4.2 -0.4-0.4-0.9-0.9-1.3-1.4 -0.8-1-1.7-2-2.4-3.1 -0.9-1.3-1.8-2.7-2.6-4 -1.1-1.9-2.2-3.9-3.3-5.8 -0.8-1.4-1.7-2.9-2.5-4.3 -0.9-1.6-1.8-3.1-2.8-4.7 -0.9-1.6-1.9-3.1-2.7-4.7 -1-2-2.4-3.7-3.7-5.6 -1.2-1.8-2.3-3.8-3.7-5.5 -1.4-1.8-2.4-3.9-4-5.6 -1.1-2.3-3-4.2-4.3-6.4 -1-1.7-2.3-3.1-3.5-4.6 -1.3-1.7-2.7-3.3-4.1-5 -2.1-2.6-4-5.3-5.7-8.2 -3.4-5.6-5.6-11.6-7.3-17.9 -1.1-4.3-1.7-8.7-2.2-13.1 -0.7-6.3-0.8-12.6-0.5-19 0.2-4.6 0.2-9.3 0.5-13.9 0.3-5.5 1.5-10.9 2.9-16.2 1.6-6.1 3.8-12.1 6.7-17.7 0.7-1.4 1.4-2.7 2.2-4 0.7-1.1 1.5-2 2.3-3 1-1.2 2.4-1.6 3.9-1.9 1.1-0.2 2.1 0.2 3 0.8 1.8 1.1 2.9 2.8 4 4.6 1.3 2.2 2.1 4.6 2.7 7.1 1 4 1.9 8 2.7 11.9 2.4 10.6 5.1 21.2 8.6 31.6 2.4 7.1 4.2 14.3 5.5 21.7 1.1 6.2 2.5 12.4 4.2 18.5 1.5 5.5 3.7 10.8 6.3 15.9 1.4 2.8 3 5.6 4.5 8.4 2.8 5.1 5 10.6 6.5 16.2 3.5 12.9 7.1 25.8 11.1 38.6 1.1 3.6 2 7.2 2.9 10.8 0.6 2.3 1.4 4.4 2.4 6.5 0.2 0.4 0.6 0.8 0.9 1.2 0.4 0.6 0.8 1.1 1.2 1.7 0.6 0.8 1.1 1.8 1.3 2.8 0.1 0.5 0.2 1.1-0.5 1.5C136.2 336.6 135.4 336.4 134.7 336.2L134.7 336.2z" class="b"/><path d="M257.9 192.3c-0.5 0.5-0.8 0.8-1.1 1.1 -1.1 1.4-2.3 2.9-3.4 4.3 -4.7 6-9.4 12-14.1 17.9 -3.1 3.8-6.1 7.7-9 11.7 -3.2 4.5-6.5 9-9.8 13.5 -6.7 9.1-13 18.4-18.8 28.1 -5.6 9.4-11.9 18.3-18.8 26.7 -2.7 3.3-5.5 6.4-8.1 9.7 -1.9 2.4-3.6 4.8-5.4 7.3 -0.7 0.9-1.3 1.9-1.6 3.4 0.5-0.6 0.8-1 1.1-1.4 3.3-4.9 7-9.3 11-13.6 2.3-2.5 4.7-4.8 6.9-7.4 5.9-7.1 11.3-14.4 16.3-22.1 4.6-7.2 9.4-14.2 14.5-21 6.3-8.4 12.6-16.8 18.5-25.5 0.6-0.8 1.1-1.6 1.7-2.4 5.5-7.5 11.1-14.9 16.3-22.6 0.9-1.3 1.9-2.7 2.7-4 0.5-0.8 0.9-1.6 1.3-2.4C258.1 193.3 258 193 257.9 192.3L257.9 192.3zM247.9 236.5c-1 1.3-2 2.6-2.9 3.9 -3.6 5.2-7.4 10.2-11.6 15 -3.3 3.7-6.7 7.4-9.9 11.2 -2.7 3.1-5.3 6.4-7.8 9.7 -3.4 4.4-6.8 8.7-10.7 12.7 -4 4.1-8.3 8-12.6 11.8 -2.7 2.4-5.4 4.9-8.1 7.5 -5.5 5.3-11 10.6-16.5 16 -3.1 3.1-5.9 6.4-8.3 10.1 -1.6 2.5-3.4 5-5.1 7.5 -0.3 0.2-0.6 0.3-0.9 0.6 -0.3 0.3-0.5 0.7-0.9 0.9 -0.3 0.2-0.7 0.2-1 0.1 -0.5-0.1-0.6-0.6-0.6-1 0-0.1 0-0.3 0.1-0.4 0.6-1.1 0.4-2.2 0.4-3.3 0-1.7-0.1-3.5 0.1-5.2 0.1-1 0.2-2.1 0-3.1 0.2-0.4 0.6-0.8 0.7-1.3 0.5-2.6 1.4-5 2.3-7.5 1.9-5 4.4-9.6 6.8-14.3 4-7.7 7.9-15.4 11.9-23.1 1.4-2.6 2.7-5.3 4.2-7.8 4-6.6 8-13.3 12.1-19.9 1.4-2.3 3.1-4.6 4.7-6.7 2.1-2.7 4.4-5.4 6.5-8 1.9-2.4 3.7-4.7 5.6-7.1 0.2-0.2 0.5-0.5 0.7-0.8 1.6-2.1 3.2-4.3 4.8-6.4 0.8-1.1 1.5-2.2 2.3-3.3 0.4-0.6 0.9-1.1 1.3-1.7 0.3-0.4 0.7-0.7 1-1.1 2.1-2.7 4.2-5.3 6.2-8 5.3-7.2 11.3-13.7 18-19.5 2.7-2.3 5.4-4.5 8.3-6.5 1.6-1.1 3.4-2 5.1-2.9 1.6-0.8 3.3-1.1 5.1-1.1 4.4 0.1 8.2 3.3 9.4 7.5 0.5 2 0.5 4 0.2 6.1 -0.1 0.8-0.2 1.7-0.2 2.5 -0.4 1.4-0.8 2.9-1.3 4.3 -0.1 0.2-0.3 0.3-0.3 0.5 -1.8 5.1-4.4 9.9-7.4 14.4 -0.3 0.5-0.6 1-0.8 1.5 -0.1 0.1 0.1 0.4 0.1 0.6l0 0c-0.6-0.2-0.7 0.3-0.9 0.7 -0.7 1.1-1.5 2.2-2.2 3.2 -0.3 0.3-0.5 0.6-0.8 1 -2.2 3.2-4.4 6.4-6.6 9.7C248.3 235.7 248.1 236.1 247.9 236.5L247.9 236.5z" class="b"/><path d="M123.7 225.2c0 0 0.1-0.1 0.1-0.1 -0.2-0.9-0.4-1.8-0.5-2.7 -0.9-4.1-1.7-8.1-2.2-12.3 -0.2-1.7-0.5-3.3-0.8-5 -1.2-6.9-2.5-13.8-3.7-20.8 -0.8-4.6-1.4-9.2-2-13.8 -0.4-3.4-0.7-6.9-1.1-10.3 -0.4-5-0.9-10-1-15 -0.1-6.3-0.1-12.5 0.5-18.8 0.3-3.7 0.7-7.4 1.1-11.1 0.3-3 0.7-6 1-9 0-0.4 0.2-0.9-0.3-1.5 -0.2 0.3-0.4 0.5-0.5 0.7 -0.3 1.1-0.6 2.2-0.8 3.3 -0.6 4.2-1.3 8.4-1.8 12.5 -0.9 6.2-1.4 12.5-1.5 18.7 -0.1 5.1-0.1 10.1 0.3 15.2 0.4 4.8 0.6 9.6 1 14.3 0.2 2.7 0.5 5.5 1.1 8.2 1 5 2.1 9.9 3.3 14.8 1.5 6 3 12 4.3 18.1 0.8 3.9 1.8 7.7 2.7 11.5C123.1 223.3 123.4 224.2 123.7 225.2L123.7 225.2zM131.7 191.8c-0.5 7.9-0.7 15.8-0.5 23.7 0.1 5 0.9 10 1.9 14.9 0.9 4 1.7 8 2.1 12.1 0.1 1.4 0.2 2.8 0.3 4.2 0 0.5-0.1 1 0.3 1.4 -0.2 1.1-0.4 2.2-0.1 3.3 0.1 0.5 0.1 1.1 0 1.7 -0.1 1.5-0.2 2.9-0.3 4.4 0 0.4 0 0.8-0.1 1.2 -0.3 1.4-1.3 1.7-2.4 0.8 -0.2-0.1-0.3-0.3-0.5-0.4 -0.2-0.2-0.5-0.4-0.5-0.6 -0.2-1.5-1.1-2.7-1.9-3.9 -0.9-1.3-1.8-2.6-2.9-3.8 -1.3-1.4-2.3-3.1-3.3-4.8 -1-1.7-1.9-3.4-2.9-5.1 -3.2-5.5-5.8-11.2-7.6-17.3 -2.6-8.9-5.1-17.7-7.6-26.6 -0.5-1.7-0.8-3.4-1.2-5.1 -0.7-2.7-1.4-5.5-2.2-8.2 -1.8-5.8-2.8-11.8-3.3-17.8 -0.5-7.3-1.3-14.6-2.3-21.8 -0.9-6-1-12.1-0.3-18.1 0.4-3.6 0.8-7.1 1.7-10.6 0.8-3.2 1.9-6.3 3.5-9.2 1.7-3.2 3.8-6.2 6.7-8.5 0.6-1.1 1.8-1.2 2.7-1.9 0.8-0.7 1.8-1 2.7-1.4 0.6-0.3 1.4-0.4 1.8-1.1 0.5-0.1 1-0.1 1.4-0.2 2.5-0.8 5-1.3 7.6-0.7 0.8 0.4 1.6 0.9 2.4 1.3 1.8 1.9 3 4.1 3.5 6.6 0.3 1.4 0.4 2.8 0.6 4.2 0.1 0.7 0.3 1.5 0.4 2.2 0 1.3 0 2.6 0 4 0 0.2 0 0.4 0 0.6 0.1 6.8 0 13.7-0.5 20.5 0 0.4-0.1 0.8-0.1 1.3 -0.2 3.1-0.5 6.2-0.6 9.3 -0.3 6 0.2 12 0.5 17.9 0.1 2.4 0.3 4.8 0.4 7.2 0.2 3.9 0.5 7.7 0.6 11.6C131.7 183.2 131.6 187.5 131.7 191.8L131.7 191.8z" class="a"/><path d="M261.4 244.5c0.6 0.2 0.9-0.2 1.3-0.5 1.2-1 2.5-2.1 3.7-3.2 7.3-6.8 14.5-13.6 21.7-20.4 2.7-2.5 5.4-4.9 8.3-7.2 0.9-0.7 1.8-1.5 2.7-2.4 0.8-0.8 2-1.3 2.7-2.2 0.5-0.7 1.5-1 2.2-1.6 1.1-1 2.2-2 3.3-3 5.7-5.3 11.3-10.8 15.8-17.3 3.6-5.2 7.5-10.3 10.5-15.9 2.7-5 5.3-10 7.8-15 1.6-3.1 3-6.2 4.4-9.3 1.5-3.5 2.8-7.1 3.7-10.8 0.2-0.9 0.4-1.8 0.1-2.7 -0.1-0.2-0.3-0.5-0.5-0.6 -0.2 0-0.5 0.2-0.6 0.4 -0.7 1.7-1.4 3.4-2.1 5.1 -2.3 5.5-4.8 10.8-7.6 16 -1.7 3.2-3.5 6.5-5 9.8 -4 8.6-9 16.6-14.7 24.1 -7 9.2-15 17.6-23.9 25 -1.7 1.4-3.5 2.9-5.1 4.4 -2.9 2.7-5.7 5.6-8.7 8.3 -6.9 6-13.2 12.7-19.9 18.9 -0.2 0.1-0.3 0.3-0.5 0.4 0.1 0.1 0.1 0.1 0.2 0.2C261.2 244.9 261.3 244.7 261.4 244.5L261.4 244.5zM341.8 127c0.2-0.1 0.4-0.1 0.6-0.2 1.6-1.5 3.6-2.1 5.5-2.9 1.2-0.5 2.4-0.6 3.7-0.4 2.5 0.4 4.1 2.1 5.3 4.2 0.5 0.8 0.8 1.8 1 2.8 1.2 4.8 1.2 9.6 0.3 14.5 -1.9 9.6-4.8 18.8-9.3 27.5 -4 7.9-8.3 15.7-12.8 23.3 -2 3.4-4.3 6.6-7 9.5 -3.1 3.4-6.7 6.2-10.7 8.6 -4.8 2.8-9.6 5.6-14.5 8.3 -5.7 3.2-11.1 6.9-16.5 10.6 -3.6 2.4-7.1 5.1-10.6 7.7 -4.1 3-8.3 5.7-12.9 8 -5.1 2.5-10.2 5.1-15 8.1 -3.4 2.1-6.6 4.5-9.9 6.8 -0.7 0.5-1.3 1-2 1.5 -0.4 0.3-0.9 0.4-1.4 0.5 -0.7 0.1-1.2-0.4-1.3-1.1 -0.1-0.4-0.1-0.9 0.1-1.2 0.3-0.9 0.6-1.8 1.1-2.7 0.9-1.4 1.6-2.9 2.4-4.4 0.7-1.3 1.4-2.5 2.5-3.5 1-0.9 1.6-2.1 2.5-3.1 1.1-1.2 1.7-2.9 3.3-3.8 0.4-0.2 0.8-0.6 1-1 1-1.5 2.5-2.5 3.8-3.6 0.5-0.4 1-1 1.5-1.5 0.3-0.3 0.6-0.8 1.1-1 1.4-0.8 2.3-2.2 3.8-2.9 0.4-0.2 0.7-0.7 1.1-1l0 0c0.1-0.1 0.2-0.2 0.4-0.3 0.2-0.1 0.5-0.2 0.7-0.4 3.2-2.4 6.4-4.9 9.2-7.7 2.7-2.7 5.4-5.3 8.1-8 0.3-0.3 0.4-0.7 0.7-1l0 0c0.2-0.1 0.4-0.3 0.7-0.4 0.7-0.6 1.4-1.1 2-1.8 1.9-1.8 3.8-3.7 5.7-5.5 0.5-0.5 0.9-1.1 1.3-1.6 0.5-0.4 1-0.8 1.4-1.2 3.8-4.3 7.7-8.5 11.3-12.9 2.2-2.7 4.2-5.6 6.3-8.4 0.3-0.4 0.8-0.9 0.5-1.5l0 0c0.2-0.1 0.4-0.3 0.6-0.4 1-1.3 1.9-2.7 2.6-4.2 0.4-0.5 0.8-1 1.1-1.5 2.4-4.2 4.3-8.7 6.4-13 0.6-1.3 1.2-2.7 1.8-4 1-1.7 2-3.5 2.9-5.2 0.1-0.2 0-0.5 0-0.8l0 0c0.4 0.1 0.4-0.2 0.4-0.5l0 0c0.1-0.2 0.2-0.4 0.4-0.6 0.4-0.7 0.9-1.4 1.3-2.2 1.7-3.4 3.4-6.8 5.1-10.2 2.1-4.3 5.1-7.9 8.8-10.9C339.2 129.1 340.5 128 341.8 127L341.8 127z" class="b"/><path d="M152.9 279.9c0 0 0 0-0.1 0 -0.1 0.2-0.1 0.3-0.2 0.5C152.7 280.2 152.8 280.1 152.9 279.9L152.9 279.9zM153.4 278.7c0.1 0.1 0.2 0.2 0.3 0.2 0.1-0.2 0.3-0.5 0.4-0.7 2.1-3.3 4.2-6.6 6.4-10 1.6-2.6 3.3-5.1 4.8-7.7 2.3-3.9 4.5-7.8 6.6-11.8 2.4-4.4 5.1-8.7 7.8-13 1.6-2.5 3.4-4.8 5-7.2 2.9-4.6 5.8-9.3 8.6-14 3-4.9 6-9.8 8.9-14.9 5.8-10.2 10.9-20.7 16-31.2 1.3-2.6 2.3-5.3 3.3-8 0.4-1 0.6-2.2 0.9-3.3 0.1-0.3-0.1-0.6-0.2-1.1 -0.4 0.3-0.7 0.4-0.8 0.6 -0.4 0.6-0.7 1.2-1 1.8 -1.4 2.8-2.7 5.6-4.1 8.3 -5.5 10.7-11 21.4-16.5 32.1 -1.5 2.9-3.1 5.9-4.7 8.7 -2.2 3.9-4.5 7.8-6.6 11.8 -2.5 4.5-5 9-7.8 13.3 -3.7 5.5-7 11.2-10.2 17 -3.8 7.1-7.8 14.2-12.2 21C156.5 273.3 155 276 153.4 278.7L153.4 278.7zM217 197c-0.7 0.9-1.1 1.9-1.4 3 -0.1 0.2-0.3 0.5-0.4 0.7 -3.2 6.9-6.9 13.5-10.8 20.1 -0.6 1-1 2-1.6 3 -0.4 0.7-0.8 1.5-1.3 2.2 -1.3 2-2.5 4.1-3.4 6.3 -0.5 0.7-1 1.4-1.4 2.1 -3.9 6.8-8 13.4-12.9 19.6 -4.1 5.2-8.3 10.3-12.5 15.4 -4.5 5.5-9 11-13.5 16.5 -2.6 3.2-5.4 6.3-8.7 8.9 -0.6 0.5-1 1.1-1.6 1.7 -0.7 0.8-1.4 1.5-2.2 2.2 -0.5 0.5-1 1-1.6 1.4 -0.5 0.3-1.1 0.3-1.6 0 -0.5-0.3-0.7-0.9-0.6-1.5 0.1-0.3 0.2-0.7 0.3-1 0.6-1.9 1.3-3.7 1.9-5.6 1.3-3.9 2.5-7.8 3.8-11.6 0.4-1.1 0.8-2.1 1.2-3.1 0.4-1 0.8-2.1 1.3-3.1 0.5-1 0.7-2.1 1.3-3 2.3-3.5 4.3-7 6.1-10.8 2.6-5.7 4.6-11.6 6.5-17.6 0.1-0.4 0.1-0.8 0.2-1.2l0 0.1c0.1-0.1 0.3-0.3 0.4-0.4 0-0.1 0-0.3 0-0.4 1.5-5.1 3.1-10.2 4.6-15.4 0.5-1.7 0.9-3.4 1.4-5.1 0.2-0.6 0.4-1.3 0.6-1.9 0.2-0.6 0.4-1.2 0.7-1.7 0.3-0.7 0.5-1.3 0.8-2 2.9-7.8 5.7-15.6 8.7-23.3 1.1-2.9 2.4-5.7 4-8.4 2.2-3.6 5-6.6 8-9.5 3.5-3.4 7-6.8 10-10.5 1.1-1.4 2.2-2.7 3.4-4 2-2.3 4-4.7 6.4-6.7 3-2.3 6.2-4.1 10-4.8 2.6-0.5 4.9 0 6.7 2 0.9 1 1.3 2.2 1.6 3.4 0.6 2.4 0.6 4.7 0.3 7.1 -0.4 3.3-1.3 6.5-2.5 9.6 -0.4 1.1-0.8 2.2-1.3 3.4 -0.6 1.3-1.2 2.6-1.8 3.8 -2.9 6.1-5.7 12.2-8.6 18.3C217.3 195.7 217.2 196.4 217 197L217 197z" class="a"/><path d="M171.7 216.7c-0.2 0.6-0.4 1.2-0.7 1.7 -0.6 0-1.3 0-1.9 0.1 -0.6 0.1-1.2-0.2-1.9 0.4 1.2 0.5 2.2 1 3.2 1.4 -0.4 1.7-0.9 3.4-1.4 5.1 -1.5 5.1-3 10.2-4.6 15.4 0 0.1 0 0.3 0 0.4 -0.1 0.1-0.3 0.3-0.4 0.4l0-0.1c-0.3 0.2-0.6 0.3-0.8 0.6 -1.2 1.4-2.4 2.8-3.5 4.2 -1.8 2.2-3.1 4.7-4 7.3 -1.2 3.5-2.3 7.1-3 10.7 -0.5 2.3-0.9 4.5-1.3 6.8 -0.6 0.9-0.7 2.1-1.2 3 -0.5 1-0.9 2.1-1.3 3.1 -0.4 1-0.8 2.1-1.2 3.1 -1.3 3.9-2.5 7.8-3.8 11.6 -0.6 1.9-1.3 3.7-1.9 5.6 -0.1 0.3-0.2 0.7-0.3 1 -0.1 0.6 0.1 1.1 0.6 1.5 0.5 0.3 1.1 0.4 1.6 0 0.6-0.4 1.1-0.9 1.6-1.4 0.7-0.7 1.5-1.5 2.2-2.2 0.2 3.2 0.3 6.3 0.5 9.5 0.2 2.7 0.3 5.5 0.7 8.2 0.8 5.4 1.8 10.8 2.8 16.2 0.2 1 0.1 2 0 3.1 -0.2 1.7-0.1 3.5-0.1 5.3 0 1.1 0.2 2.2-0.4 3.3 -0.1 0.1-0.1 0.3-0.1 0.4 0 0.4 0.1 0.9 0.6 1 0.3 0.1 0.7 0 1-0.1 0.3-0.2 0.6-0.6 0.9-0.9 0.3-0.2 0.6-0.4 0.9-0.6 0.6 2.5 1.2 4.9 1.8 7.4 0.3 1 0.5 2.1 0.8 3 2.2 6.5 4.3 13.1 6 19.7 0 0.2 0.2 0.3 0.3 0.5 -1 3.2-1.3 6.6-1.6 9.9 -0.1 0.6-0.1 1.1 0 1.7 0.2 1.9 0.4 3.9 0.4 5.8 0 0.5 0.2 1 0.3 1.4 0.2 0.6 0.6 1.1 1.3 1.2 0.7 0.1 1.2-0.3 1.5-0.9 0.2-0.4 0.4-0.8 0.5-1.1 0.4-0.9 0.9-1.9 1.3-2.8 0.2 0.2 0.4 0.4 0.5 0.7 0.3 0.6 0.5 1.3 0.7 2 1.8 5.9 4.7 11.2 7.9 16.5 2.3 3.8 4.8 7.6 7.2 11.4 1.5 2.3 2.8 4.7 4.3 7 1.4 2.2 3 4.3 4.5 6.4 0.2 0.3 0.5 0.7 0.7 1.1 0.3 0.6 0.1 1.4-0.6 1.6 -1.2 0.3-1.7 1.2-2.2 2.1 -0.4 0.6-0.7 1.2-1.1 1.8 -0.7 1-1.4 1.9-1.7 3.1 -0.2 0.5-0.5 1-0.9 1.4 -0.4 0.4-1 0.6-1.5 0.4 -0.8-0.4-1.8-0.7-2.4-1.5 -1.2-1.7-2.8-2.9-4.2-4.4 -0.9-0.9-1.8-1.9-2.7-2.9 -0.9-1.2-1.8-2.4-2.7-3.6 -1.1-1.5-2.3-2.9-3.1-4.6 -0.5-1.1-1.1-2.1-1.8-3.1 -0.6-1-1.5-1.8-2.1-2.8 -0.7-1.1-1.4-2.2-2.1-3.3 -2.8-4.5-5.2-9.1-7.4-13.9 2.4-0.3 2.9-1.3 1.8-3.3 -0.6-1.1-1.3-2.2-1.8-3.3 -1.3-3.2-3.2-6.1-5.3-8.8 -1.3-1.6-2.5-3.4-3.6-5.2 -1.2-2-2.7-3.9-4-5.9 0 0 0.1 0.1 0.1 0.1l0-0.2 -0.2-0.1c-0.3-1-0.5-2-0.9-3 -2.7-6.3-4.4-12.8-6-19.5 -0.6-2.5-1-5.1-1.5-7.6 -0.6-3.2-0.5-6.4-0.4-9.6 0.8 0.2 1.6 0.4 2.3 0.5 0.7-0.4 0.6-1 0.5-1.5 -0.2-1-0.7-1.9-1.3-2.8 -0.4-0.6-0.8-1.1-1.2-1.7 0.2-1.2 0.3-2.4 0.6-3.5 0.5-1.7 0.4-3.5 0.1-5.2 -0.4-2.6-1-5.1-1.5-7.6 -0.7-3.3-1.4-6.6-2.1-9.9 -0.3-1.4-0.6-2.7-1-4.1 -0.7-2.5-1-5-1.1-7.5 -0.1-2.2-0.2-4.5-0.2-6.7 0.1-6.2 0.2-12.4 1-18.5 0.4-2.9 1.1-5.8 1.6-8.7 0.2 0.1 0.3 0.3 0.5 0.4 1.2 0.9 2.1 0.6 2.4-0.8 0.1-0.4 0.1-0.8 0.1-1.2 0.1-1.5 0.2-2.9 0.3-4.4 0-0.6 0.1-1.1 0-1.7 -0.2-1.1-0.1-2.2 0.1-3.3 0.6-1.9 1.2-3.9 1.7-5.8 0.6-2.4 1.9-4.4 3-6.5 0.1-0.2 0.3-0.5 0.5-0.6 1.1-0.4 1.4-1.3 1.7-2.3 1.5-4.5 3.3-8.9 4.1-13.7 0.7-3.8 2-7.3 4-10.5 0.2 0 0.3 0.1 0.5 0.1 -0.1 1.3-0.2 2.7-0.2 4 -0.1 4-0.1 8-0.1 12 0 2.1 0.3 4.2 0.4 6.3 -0.1 0.1-0.2 0.2-0.3 0.3 -2.5 5.1-5 10.2-7.5 15.4 -0.6 1.2-1.1 2.5-1.5 3.7 -1.4 4.1-2.7 8.3-3.2 12.6 -0.9 6.6-2 13.2-2.5 19.9 -0.4 4.5-0.1 8.9 0.5 13.3 0.4 2.6 1 5.3 1.7 7.8 1.1 4.4 2.2 8.9 2.7 13.4 0.7 6.4 1.3 12.7 1.8 19.1 0.2 3.3 0.5 6.6 1.1 9.9 0.7 4.2 1.5 8.4 2.4 12.7 0.3 1.4 0.6 2.7 1.2 4.1 2 5 3.5 10.3 6.1 15.1 0.2 0.4 0.4 0.9 0.6 1.4 1.8 5.5 3.7 10.9 5.4 16.4 0.8 2.4 1.6 4.8 2.8 7.1 1.3 2.6 2.6 5.1 4 7.7 1.5 2.8 3.1 5.7 4.8 8.5 1.3 2.2 3 4.3 4.3 6.5 1.9 3 4.4 5.5 6.5 8.3 0.2 0.3 0.5 0.4 0.8 0.6 0.1 0.1 0.2 0.3 0.2 0.4 0.3 0.3 0.6 0.7 1 1 0.1 0.1 0.4 0 0.8 0 -0.3-0.5-0.4-0.8-0.6-1.1 -0.2-0.2-0.4-0.4-0.6-0.5 -0.1-0.1-0.2-0.2-0.3-0.2 -0.9-1.5-1.7-3-2.8-4.4 -2.5-3.2-4.5-6.6-6.6-10.1 -2.8-4.8-5.9-9.4-8.5-14.4 -0.4-0.7-0.7-1.4-1-2.1 -1.9-4.7-3.8-9.4-5-14.3 -0.8-3.1-2.1-6.1-3.3-9.1 -2.8-7.1-5-14.4-6.7-21.7 -1.3-5.5-2.7-11.1-3.9-16.6 -0.6-2.7-1.3-5.5-1.7-8.3 -0.9-6.3-1.5-12.7-2.3-19.1 -0.3-2.6-0.7-5.2-1.4-7.7 -0.3-1.1-0.6-2.2-0.8-3.3 -1-3.6-1.5-7.3-1.4-11.1 0-1.4 0-2.8-0.1-4.2 -0.4-5.5 0-11 1.2-16.4 0.5-2.5 1-5.1 1.4-7.7 0.9-5 2-9.9 4-14.6 1.7-3.9 3.4-7.9 5.2-11.8 0.6-1.4 1.4-2.8 2.1-4.1 0.3 2.1 0.6 4.3 1 6.4 0.3 1.4 1 2.8 0.8 4.3 0 0.1 0 0.1 0 0.2 0.2 0.6 0.3 1.3 1 1.5 0.5 0.1 0.9-0.3 1.2-1.2 0.9-2.1 1.7-4.3 2.6-6.4 2.2-4.8 4.2-9.6 6.1-14.5 0.9-2.3 1.8-4.6 2.7-6.9C168.8 216.7 170.3 216.7 171.7 216.7L171.7 216.7z" class="a"/><path d="M131.7 191.8c0-4.3 0-8.6-0.1-12.9 -0.1-3.9-0.4-7.7-0.6-11.6 -0.1-2.4-0.3-4.8-0.4-7.2 -0.2-6-0.7-12-0.5-17.9 0.1-3.1 0.4-6.2 0.6-9.3 0-0.4 0.1-0.8 0.1-1.3 0.5-6.8 0.6-13.6 0.5-20.5 0-0.2 0-0.4 0-0.6 0.1 0.5 0.2 1 0.2 1.4 0.2 7.8 0.5 15.6 0.7 23.4 0.1 3.7 0.1 7.5 0.2 11.3 0-0.9 0.2-1.8 0.2-2.7 0.1-8.4 0.1-16.7 0.1-25.1 0-3.2-0.1-6.3 0-9.5 0-4.9 0.5-9.7 1.8-14.4 0.1-0.3 0.1-0.7 0.3-1.5 -0.5 0.7-0.7 0.9-0.8 1.2 -0.5 1.3-0.9 2.7-1.3 4 -0.7 2.6-0.9 5.3-1.3 7.9 -0.1-0.7-0.3-1.5-0.4-2.2 -0.2-1.4-0.3-2.8-0.6-4.2 -0.5-2.5-1.7-4.7-3.5-6.6 3.2-7.8 6.9-15.3 11.2-22.5 2.5-4.2 4.9-8.4 8-12.2 0.9-1.1 1.8-2.2 2.6-3.3 0.4-0.6 0.9-1.1 1.3-1.7 0.4-0.6 0.5-1.1 0.1-1.3 -0.4-0.3-0.8 0-1.1 0.3 -0.2 0.1-0.3 0.3-0.5 0.4 -1.1 1.1-2.3 2.1-3.3 3.3 -2.7 3.2-5.3 6.6-7.5 10.2 -3.9 6.2-7.5 12.6-10.5 19.3 -0.9 2.1-1.8 4.1-2.8 6.2 -2.6-0.6-5.1-0.2-7.6 0.7 -0.4 0.2-0.9 0.1-1.4 0.2 0.9-2.2 1.8-4.4 2.7-6.7 1.3-3.3 3.2-6.2 4.8-9.3 1.8-3.3 3.9-6.4 6-9.5 0.9-1.4 1.8-2.7 3-3.9 0.8-0.8 1.4-1.7 2.1-2.6 1.3-1.8 3-3.3 4.5-5 0.9-1 1.9-2.1 3-2.9 1.7-1.2 3.2-2.5 5.2-3.3 1.9-0.8 3.8-1.9 5.7-2.8 0.8-0.3 1.6-0.6 2.4-0.6 1.5-0.1 2.4 0.9 2.2 2.4 -0.3 2.7-0.5 5.5-1.4 8.1 -2.2 5.8-2.2 11.8-1.3 17.9 0.4 2.7 0.6 5.5 1.1 8.2 0.5 3.1 0.8 6.1 0.9 9.2 0 0.4 0.1 0.9 0.3 1.2 0.6 0.8 0.5 1.7 0.6 2.6 0.1 2.5-0.2 4.9-0.6 7.4 -0.8 4.7-1.2 9.5-1.6 14.3 -0.3 3.9-1 7.7-1.8 11.5 -1.6 6.9-3.1 13.9-4.6 20.8 -1.1 4.9-2 9.8-3 14.7 -0.7 3.4-1 6.8-1.1 10.3 -0.1 4.8-0.2 9.6 0 14.4 0.1 3.6 0.4 7.2 1.3 10.7 0.6 2.5 1.7 4.9 2.7 7.3 0.2 0.4 0.4 0.9 0.5 1.4 -0.3 0-0.4 0-0.5-0.1 -4.6-3.9-9-7.9-12.7-12.7C134.4 194.4 133 193.1 131.7 191.8L131.7 191.8z" class="c"/><path d="M201.7 105.7c-0.1-0.1-0.2-0.2-0.3-0.3 -0.4 0.2-0.8 0.3-1 0.6 -0.9 1-1.9 1.9-2.7 3 -1.7 2.4-3.4 4.8-5 7.4 -5.8 9.4-10.5 19.3-14.9 29.3 -2.5 5.7-4.6 11.6-7 17.4 -3.6 8.9-6.7 18.1-9.6 27.3 -0.5 1.5-0.9 3-1.2 4.5 -0.8 3.8-1.7 7.6-2.3 11.4 -0.8 4.5-1.4 9-2.1 13.6 -0.1 0.8-0.1 1.7-0.1 2.5 0 0.1 0.1 0.2 0.3 0.4 0.6-0.7 0.7-1.5 0.9-2.3 0.6-3 1.1-6.1 1.7-9.1 1.6-8.1 3.4-16.2 6-24.2 3.7-11.5 8.1-22.7 12.9-33.7 2.6-6.1 5.7-12.1 8.6-18.1 4.6-9.5 9.6-18.8 15.1-27.8C201.1 106.8 201.4 106.3 201.7 105.7L201.7 105.7zM151.5 230.9c-0.2-2.1-0.4-4.2-0.4-6.3 0-4 0-8 0.1-12 0-1.3 0.2-2.7 0.2-4 0.6-3.7 1.1-7.4 1.7-11 0.5-3.1 1.2-6.2 1.8-9.3 1.2-6.4 2.8-12.6 4.7-18.8 1.8-6 4.3-11.8 7-17.4 3.8-8 7.1-16.1 9.8-24.5 0.8-2.5 1.7-4.9 2.8-7.3 2.9-6.7 6.8-12.8 12.1-17.9 1.8-1.8 3.8-3.4 6.2-4.4 6.5-2.7 12 2.4 12.5 7.5 0.2 1.9 0.2 3.8-0.3 5.7 -0.5 2.3-1.1 4.7-1.6 7 -0.3 1.1-0.7 2.2-1 3.3 -0.2 0.4-0.3 0.8-0.5 1.2 -1.5 4.3-3.2 8.4-5 12.5 -1.2 2.6-2.5 5.2-3.5 7.9 -1.7 4.5-3.3 9-4.9 13.5 -0.1 0.2 0 0.4 0 0.6l0 0c-0.1 0.2-0.3 0.5-0.4 0.7 -1.7 3.5-3.4 7.1-5.2 10.6 -0.1 0.3-0.4 0.6 0 0.9 0 0 0 0 0 0 -0.5-0.2-0.5 0.1-0.4 0.5l0 0c-0.2 0.1-0.4 0.2-0.5 0.3 -0.6 1.2-1.1 2.4-1.7 3.5l0 0c-0.1 0.3-0.3 0.6-0.4 0.9l0 0c-0.1 0.2-0.2 0.4-0.4 0.6 -1.8 3.7-3.6 7.5-5.3 11.2 -4.7 9.8-8.2 20.1-11.5 30.5 -0.9 2.3-1.8 4.6-2.7 6.9 -1.9 4.9-3.9 9.8-6.1 14.6 -1 2.1-1.8 4.3-2.6 6.4 -0.4 0.9-0.8 1.3-1.2 1.2 -0.7-0.2-0.8-0.9-1-1.5 0-0.1 0-0.1 0-0.2 0.1-1.5-0.5-2.9-0.8-4.3 -0.4-2.1-0.7-4.3-1-6.4C151.7 232.5 151.6 231.7 151.5 230.9L151.5 230.9z" class="a"/><path d="M167.4 216.7c3.3-10.4 6.8-20.6 11.5-30.5 1.8-3.7 3.6-7.5 5.3-11.2 0.1-0.2 0.2-0.4 0.4-0.6 0 0 0 0 0 0 0.1-0.3 0.3-0.6 0.4-0.9l0 0c1.1-1 1.7-2.2 2.3-3.5 0-0.1-0.1-0.2-0.2-0.3l0 0c0.5 0.2 0.5-0.1 0.4-0.5 0 0 0 0 0 0 0.1 0 0.3 0 0.4-0.1 1.1-1.7 2.6-3 4-4.4 1.8-1.9 3.7-3.7 5.5-5.6 2.6-2.8 5-5.7 7.6-8.5 1.4-1.6 3-3 4.5-4.5 0.8-0.8 1.7-1.5 2.5-2.3 1.4-1.3 2.7-2.6 4.1-4 4.6-4.4 10-7.8 15.7-10.6 8.3-4 16.8-7.7 25.3-11.1 5.5-2.2 11.1-4.1 16.9-5.4 1-0.2 1.9-0.4 2.9-0.1 1 1 1.1 2.2 0.8 3.5 -0.4 1.8-0.8 3.6-1.3 5.3 -4.6 14.6-10.5 28.5-18.7 41.5 -1.1 1.7-2.2 3.2-3.8 4.5 -1.1 0.9-2.1 1.9-3.1 2.9 -2.5 2.5-5 5-7.3 7.6 -4.7 5.1-10.2 9.1-16 12.8 -3.1 2-6.3 3.8-9.4 5.7 -0.3 0.2-0.6 0.3-0.9 0.5 0.2-0.6 0.3-1.2 0.6-1.8 2.8-6.1 5.7-12.2 8.6-18.3 0.7 0.2 1.2-0.4 1.7-0.8 3.6-2.7 7.3-5.3 10.8-8.1 1.5-1.2 3-2.4 4.3-3.7 5.1-5 9.8-10.3 14.1-16 3.4-4.6 6.2-9.6 7.8-15.1 0.6-2.1 1.5-4.1 2.4-6.1 0.7-1.7 1.5-3.4 2.2-5 0.3-0.8 0.3-1.2-0.1-1.3 -0.5-0.1-0.7 0.3-1 0.6 -0.2 0.2-0.4 0.5-0.7 0.8 -2.2 2.5-4 5.3-5.5 8.2 -1.6 3-3.1 6-4.9 8.8 -4.7 7.4-9.9 14.4-15.6 21 -3.8 4.4-7.9 8.5-12.4 12.1 -0.4 0.3-0.8 0.5-1.2 0.8 0.4-1.1 0.8-2.2 1.3-3.4 1.2-3.1 2.1-6.3 2.5-9.6 0.3-2.4 0.3-4.8-0.3-7.1 -0.3-1.2-0.7-2.4-1.6-3.4 -1.9-2-4.2-2.5-6.7-2 -3.8 0.7-7 2.5-10 4.8 -2.5 1.9-4.4 4.3-6.4 6.7 -1.1 1.3-2.3 2.7-3.4 4 -3.1 3.8-6.5 7.2-10 10.5 -3 2.9-5.8 5.9-8 9.5 -1.6 2.7-2.9 5.5-4 8.4 -2.9 7.8-5.8 15.5-8.7 23.3 -0.2 0.7-0.5 1.3-0.8 2C170.3 216.7 168.8 216.7 167.4 216.7L167.4 216.7z" class="c"/><path d="M213.9 111.7l0.1-0.1 -0.1 0L213.9 111.7 213.9 111.7zM208 118.1c0.5-2.3 1.1-4.6 1.6-7 0.4-1.9 0.4-3.8 0.3-5.7 -0.4-5.1-5.9-10.1-12.5-7.5 -2.4 1-4.3 2.6-6.2 4.4 -5.3 5.1-9.2 11.1-12.1 17.9 -1 2.4-1.9 4.8-2.8 7.3 -2.7 8.4-6 16.5-9.8 24.5 -2.7 5.7-5.2 11.4-7 17.4 -1.8 6.2-3.4 12.5-4.7 18.8 -0.6 3.1-1.2 6.2-1.8 9.3 -0.6 3.7-1.2 7.4-1.7 11 -0.2 0-0.3-0.1-0.5-0.1 -0.3-0.6-0.6-1.3-1-1.9 -2.2-4-3.5-8.3-3.8-12.9 -0.3-3.3-0.4-6.6-0.6-9.9 -0.2-4.4 0.4-8.7 1.1-13 0.8-4.9 2.3-9.7 3.4-14.6 1.8-7.4 4-14.7 6.1-22 0.4-1.3 0.9-2.7 1.5-4 1.4-2.9 2.8-5.7 4.2-8.5 2.3-4.6 5.4-8.6 8.8-12.3 2.6-2.8 5.2-5.5 7.8-8.3 2.9-3.1 6.3-5.6 9.9-7.9 4-2.5 8.1-4.9 12.3-7 3.6-1.9 7.1-4.1 10.6-6.1 1.7-0.9 3.3-1.8 5-2.7 0.7-0.3 1.4-0.6 2.2-0.7 1.9-0.4 3.7-0.6 5.7-1 0 0.6 0.1 1.1 0 1.5 -0.5 2.2-0.7 4.4-0.7 6.7 0.1 2.9 0.2 5.8 0.2 8.6 0.1 4.4 0.2 8.9-0.4 13.3 -0.3 1.8-0.7 3.6-1.3 5.3 -0.4 1.3-0.9 2.5-0.8 3.9 0 0.5-0.2 1.1-0.4 1.6 -1.2 3.9-3 7.4-5.3 10.8 -2.9 4.2-5.9 8.4-9 12.5 -3.3 4.4-6.6 8.8-9.6 13.4 -1 1.5-2.3 2.6-3.8 3.5 0 0-0.1 0-0.2 0 0-0.2 0-0.4 0-0.6 1.6-4.5 3.2-9 4.9-13.5 1-2.7 2.3-5.3 3.5-7.9 1.9-4.1 3.6-8.3 5-12.5 0.1-0.4 0.3-0.8 0.5-1.2 0.2-0.1 0.3-0.3 0.5-0.4 2-2.6 3.9-5.3 5.8-7.9 0.1-0.2 0.2-0.4 0.5-0.9 -0.9 0.2-1.1 0.7-1.5 1.1C210.8 114.8 209.4 116.5 208 118.1L208 118.1z" class="c"/><path d="M170.3 78.4c0.1 0.1 0.2 0.1 0.3 0.2 0.2-0.3 0.4-0.6 0.6-0.9 2.6-4.2 5.4-8.2 8.3-12.2 4.8-6.6 10.2-12.6 16.7-17.6 3.9-3 7.8-6 12.1-8.5 1.5-0.9 2.9-2 4.3-3.1 0.2-0.1 0.2-0.4 0.4-0.9 -0.7 0.2-1.2 0.2-1.7 0.4 -2.3 0.8-4.5 1.9-6.6 3.2 -6 3.8-11.5 8.4-16.2 13.7 -3 3.3-5.6 6.9-8.2 10.5 -2.8 4-5.6 7.9-8.1 12.1C171.4 76.3 170.8 77.3 170.3 78.4L170.3 78.4zM154.8 134c0.5-2.4 1-4.7 1.6-7.1 1-4.6 2.1-9.2 2.9-13.8 0.9-5.1 0.9-10.2 0.1-15.4 -0.5-3.2-0.9-6.4-1-9.7 -0.1-6.3 1.1-12.5 4-18.2 0.6-1.2 1.4-2.4 2.3-3.5 3.1-4 6.2-8 9.8-11.6 1.7-1.7 3.2-3.6 4.5-5.6 1.6-2.4 3.4-4.7 5.6-6.6 0.6-0.5 1.2-1 1.9-1.3 5.1-2.8 10.3-5.5 15.4-8.3 5.4-3 11.1-5 17.2-6.2 1-0.2 2.1-0.4 3.1-0.5 0.4-0.1 0.9 0 1.3 0.1 0.8 0.2 1.3 0.9 1.1 1.7 -0.1 0.5-0.3 1-0.5 1.4 -0.4 0.8-0.9 1.6-1.4 2.3 -1.9 3-3.6 6.2-4.8 9.6 -2.9 8-6.5 15.7-10.1 23.5 -1.7 3.5-3.7 6.8-6.1 9.9 -2 2.6-3.8 5.2-5.8 7.8 -1.7 2.3-3.4 4.5-5 6.8 -0.5 0.6-1.1 1.1-1.7 1.5 -2.8 1.7-5.5 3.4-8.3 5.1 -3.2 2-6 4.4-8.4 7.3 -0.6 0.8-1.2 1.5-1.8 2.4 -3 4.8-6 9.7-8.9 14.6 -1.7 2.8-3.2 5.8-4.5 8.8 -0.7 1.7-1.6 3.4-2.3 5.2C155 134 154.9 134 154.8 134L154.8 134z" class="d"/><path d="M202.9 223.8c0.5-1 1-2 1.6-3 3.9-6.5 7.6-13.2 10.8-20.1 0.1-0.3 0.3-0.5 0.4-0.7 7.4-3.7 14.8-7.6 21.6-12.5 5.2-3.8 9.8-8.3 14-13.1 1.6-1.8 3.2-3.5 5.1-5.1 0.4-0.3 0.8-0.6 1.1-1 3.6-3.4 7.5-6.6 11.5-9.6 1.9-1.4 3.5-3 5.5-4.2 2.5-1.5 5-2.9 7.6-4.1 4.2-1.9 8.4-3.5 12.9-4.7 4.6-1.2 9.1-2.9 13.6-4.5 0.9-0.3 1.7-0.7 2.6-0.8 1.2-0.3 2.3 0.6 2.2 1.9 -0.1 0.9-0.4 1.8-0.8 2.6 -0.5 1-1.1 1.9-1.8 2.9 -1.6 2.4-3.2 4.8-4.8 7.2 -1.6 2.3-2.9 4.8-4.1 7.4 -1.5 3.3-3.5 6.3-5.7 9.1 -4.3 5.6-8.5 11.2-13.2 16.5 -1.4 1.6-3 3-4.7 4.2 -2.7 1.9-5.2 4-7.9 6.1 -0.6 0.5-1.2 0.9-1.9 1.4 0.1-0.8 0.1-1.7 0.2-2.5 0.3-2 0.3-4.1-0.2-6.1 -1.1-4.3-5-7.4-9.4-7.5 -1.8 0-3.5 0.3-5.1 1.1 -1.7 0.9-3.5 1.8-5.1 2.9 -2.9 1.9-5.7 4.2-8.3 6.5 -6.7 5.8-12.7 12.3-18 19.5 -2 2.7-4.1 5.4-6.2 8 -0.3 0.4-0.7 0.7-1 1.1 -0.5 0-1 0-1.5 0.1 -1.7 0.2-3.5 0.5-5.2 0.6C206.9 223.4 204.9 223.6 202.9 223.8L202.9 223.8z" class="c"/><path d="M233.1 113.9c0.5-0.3 0.8-0.4 1-0.7 0.5-0.6 1-1.2 1.5-1.8 3.4-4.5 7.1-8.7 11.3-12.6 2.2-2 4.3-4 6.4-6.1 5.6-5.8 9.8-12.5 12.6-20 0.1-0.3 0.1-0.6 0.2-1.2 -0.6 0.2-1.1 0.2-1.3 0.4 -0.7 0.7-1.4 1.4-2 2.2 -1.1 1.5-2.1 3.2-3.1 4.7 -3.4 5.3-7.2 10.2-11.5 14.9 -2.5 2.8-5 5.5-7.5 8.3 -2.1 2.3-4.1 4.7-5.7 7.3 -0.6 1-1.1 2.1-1.6 3.2C233.2 112.8 233.2 113.2 233.1 113.9L233.1 113.9zM204.5 146.7c0-0.3 0-0.4 0-0.5 0.6-1 1.3-1.9 1.8-2.8 2.9-5.1 6.4-9.8 10.3-14.1 1.6-1.7 2.8-3.7 4-5.7 2.4-4 4.3-8.3 5-12.9 0.2-1.5 0.3-3.1 0.3-4.6 0-0.9 0.2-1.6 0.7-2.3 4-5.2 8-10.6 12.1-15.8 2-2.5 4.3-4.9 6.5-7.2 0.7-0.7 1.5-1.3 2.3-1.9 4.9-3.6 9.6-7.4 14-11.6 2.9-2.7 6.3-4.8 9.7-6.7 1.5-0.8 3.1-1.6 4.9-2.5 0 0.5 0.1 0.8 0.1 1.1 -0.7 3-0.4 6-0.2 9 0.1 1.6 0.2 3.1-0.2 4.6 -0.8 3.6-0.9 7.3-1.3 10.9 -0.2 1.8-0.5 3.6-1 5.4 -1 3.3-2.1 6.6-3.2 9.8 -0.3 0.9-0.7 1.7-1.3 2.4 -3.4 4.2-6.9 8.2-9.9 12.6 -1 1.5-2.3 2.6-4 3.3 -0.8 0.3-1.5 0.7-2.3 1 -4 1.7-8.1 3.3-12.1 4.9 -0.3 0.1-0.7 0.2-1 0.4 -5.5 2.6-11 5-16.2 8.2 -1.7 1.1-3.4 2.2-5 3.5 -4 3.4-7.9 6.8-11.8 10.3 -0.5 0.4-0.9 0.8-1.5 1.2C205.1 146.8 204.8 146.7 204.5 146.7L204.5 146.7z" class="d"/><path d="M324.3 144.4c0.1 0 0.1 0.1 0.2 0.1 0.5-0.8 1-1.7 1.5-2.5 1.2-2.4 2.4-4.9 3.6-7.4 1.9-3.6 3.6-7.2 5.1-10.9 0.8-1.9 1.4-3.8 2-5.8 0.7-2.4 1.3-4.8 1.9-7.1 0.3-1.2 0.7-2.4 0.9-3.7 0.2-0.9 0.2-1.8 0.2-2.7 0-0.2-0.2-0.5-0.4-0.6 -0.2-0.1-0.6 0-0.8 0.1 -0.3 0.2-0.5 0.5-0.7 0.8 -0.3 0.6-0.7 1.3-0.9 1.9 -0.8 2.3-1.6 4.7-2.3 7 -0.9 2.9-1.7 5.8-2.7 8.7C329.4 129.7 326.8 137 324.3 144.4L324.3 144.4zM323.6 145.6c0 0.1 0 0.1-0.1 0.2 0 0 0 0.1 0 0.1 0-0.1 0.1-0.2 0.1-0.3C323.6 145.6 323.6 145.6 323.6 145.6L323.6 145.6zM319 160.4c-0.6 1.3-1.1 2.7-1.8 4 -2.1 4.4-3.9 8.8-6.4 13 -0.3 0.5-0.7 1-1.1 1.5 -3.3 1.7-6.6 3.4-10.1 4.9 -4.1 1.8-8.2 3.4-12.3 5 -0.4 0.1-0.8 0.1-1.5 0.2 0.4-0.6 0.5-0.9 0.8-1.2 1.6-1.5 3.1-3 4.7-4.5 1.9-1.8 3.7-3.7 5.3-5.8 2-2.7 4-5.3 5.9-8 3.7-5.6 6.6-11.6 8.5-18.1 0.7-2.4 1.7-4.8 2.5-7.2 0.4-1.1 0.7-2.1 1-3.2 0.1-0.4 0.1-0.8 0.1-1.3 0-0.7-0.5-1.2-1.2-1.1 -0.5 0-1 0.2-1.4 0.3 -4.1 1.4-8.3 2.3-12.5 3.1 -3 0.6-6.1 1.3-8.9 2.6 -0.4 0.2-0.7 0.5-1.3 0.2 0.1-0.3 0.2-0.7 0.4-1.1 1.4-2.2 2.7-4.4 4.3-6.5 3.7-5.1 7.4-10.3 10.9-15.6 1.6-2.5 3.5-4.8 5.5-7 2.2-2.4 4.5-4.8 6.9-7.1 2-1.9 4.2-3.6 6.6-4.9 3.3-1.9 6.6-3.8 10-5.4 1.8-0.8 3.5-1.9 5-3.2 0.2-0.2 0.4-0.3 0.7-0.4 1.5-0.6 3-1.2 4.5-1.8 0.2-0.1 0.4-0.1 0.7-0.1 0.1 0.4 0.4 0.7 0.4 1.1 0.2 5.2 0.4 10.4-0.1 15.6 -0.4 3.8-1.1 7.5-1.9 11.2 -0.5 2.4-1 4.8-1.5 7.2 -1.3 1.1-2.6 2.1-3.9 3.2 -3.8 3-6.7 6.6-8.8 10.9 -1.7 3.4-3.4 6.8-5.1 10.2 -0.4 0.8-0.8 1.5-1.3 2.2 -0.1 0.2-0.2 0.4-0.4 0.6l0 0c-0.2 0.2-0.3 0.3-0.4 0.5l0 0c-0.3 0.2-0.6 0.4-0.8 0.6 -1.8 1.8-3.5 3.6-5.2 5.4 -0.4 0.4-0.9 0.9-1.3 1.4 -0.1 0.2-0.2 0.5-0.4 0.9 1.1 0 1.9-0.4 2.7-0.9C317.6 161.4 318.3 160.9 319 160.4L319 160.4z" class="d"/><path d="M281 136.6c0.6-0.7 0.9-1 1.1-1.4 4.2-6.5 8.3-13 12.5-19.5 1.5-2.4 2.9-4.8 3.9-7.5 1.7-4.5 3.3-9.1 5-13.7 0.1-0.3 0.2-0.5 0.2-0.8 0.1-0.7 0.3-1.4-0.3-2 -0.4-0.4-1 0-1.8 1 -1.2 1.6-2.2 3.5-2.9 5.4 -1.1 3-2.3 6.1-3.4 9.1 -1.4 3.8-2.9 7.6-4.9 11.2 -2.6 4.8-5.2 9.5-7.9 14.2 -0.5 0.9-1 1.9-1.4 2.8C281.1 135.7 281.1 135.9 281 136.6L281 136.6zM259.8 163.8c0.2-1.4 1.2-2.4 1.9-3.5 1.8-2.8 3.7-5.5 5.2-8.5 1.2-2.4 2.5-4.7 3.7-7.1 2.6-5 4.5-10.3 5.8-15.8 0.6-2.5 1.2-4.9 1.7-7.4 0.4-1.9 0.7-3.9 0.9-5.8 0.1-1 0.1-2.1-0.2-3.1 -0.2-0.7-0.7-1.2-1.4-1.5 -1.1-0.5-2.3-0.6-3.5-0.4 -3.1 0.5-6.2 1.2-9.1 2.5 -0.4 0.2-0.9 0.4-1.4 0.6 -0.1 0-0.1 0-0.3 0 0-0.2 0-0.4 0.1-0.5 4.4-4.1 8.3-8.8 12.9-12.7 2-1.7 4.2-3.3 6.5-4.6 4.3-2.5 8.7-5 13.2-7.2 2.3-1.1 4.6-2.1 7.2-2.5 0.8-0.1 1.5-0.2 2.3-0.3 1.2-0.1 1.9 0.5 2.1 1.6 0.1 0.4 0.1 0.8 0.1 1.3 -0.1 4.9-0.7 9.8-1.5 14.7 -0.8 5.1-2.2 10-3.8 14.9 -1.3 3.9-3.1 7.6-5.2 11 -1.8 2.8-3.6 5.6-5.5 8.3 -1.8 2.6-3.6 5.2-5 8.1 -0.5 0.9-1.1 1.5-2.1 1.9 -2.3 0.9-4.5 2-6.6 3.3 -1.2 0.8-2.6 1.3-3.9 2.1 -4 2.5-7.9 5.1-11.4 8.3 -0.9 0.8-1.8 1.6-2.7 2.4L259.8 163.8 259.8 163.8z" class="d"/><path d="M237.8 71.2c0.5-0.7 1.2-1.4 1.6-2.2 1.6-3.1 3.1-6.3 4.6-9.5 0.1-0.3 0.2-0.7 0.2-1 0-0.1-0.1-0.2-0.2-0.3 -0.1 0-0.3 0-0.4 0 -0.3 0.3-0.5 0.7-0.7 1 -1.6 3.4-3.2 6.9-4.7 10.3 -0.2 0.5-0.5 1-0.3 1.6l-0.1 0L237.8 71.2 237.8 71.2zM195.5 86.7c0.2-0.3 0.3-0.6 0.4-0.8 3.6-4.9 7.1-9.8 10.9-14.6 2.3-2.9 4.9-5.5 7.4-8.2 0.7-0.7 1.5-1.3 2.3-1.8 1.4-0.9 2.8-1.9 4.3-2.7 3.9-2.1 7.7-4 11.6-6.1 2.6-1.3 5.4-2.1 8.2-2.6 2.1-0.4 4.1-1 6.1-1.5 1.2-0.3 2.3-0.7 3.5-0.9 0.9-0.2 1.8-0.3 2.7 0.1 0 0.3 0 0.6-0.1 0.9 -0.8 2.3-1.1 4.7-1.5 7 -1.2 6.8-3.2 13.4-5.9 19.8 -0.4 1-0.9 1.9-1.4 2.8 -2.1 3.3-4.3 6.6-6.9 9.6 -1.6 1.8-3 3.7-4.5 5.6 -1.9 2.4-3.7 4.8-5.5 7.2 -0.1 0.1-0.2 0.1-0.4 0.2 0-0.2-0.1-0.4-0.1-0.5 0.1-2 0.2-3.9 0.2-5.9 0.1-2.7 0.2-5.5 0.3-8.2 0-0.8 0.1-1.6 0.1-2.3 0.1-2.6 0-5.2 0.2-7.8 0.1-2.4-1.1-3.4-3.6-2.9 -5.8 1.2-11 3.8-16 6.9 -3.4 2.1-6.9 4.1-10.4 6.1C196.9 86.4 196.4 86.8 195.5 86.7L195.5 86.7z" class="d"/><path d="M284.7 78.5c0.1 0.1 0.2 0.2 0.3 0.3 0.3-0.2 0.8-0.4 1-0.7 0.7-0.9 1.5-1.9 2-2.9 2.7-4.9 4.6-10.1 6.1-15.5 0.3-0.9 0.4-1.8 0.6-2.7 0.4-2.8 0.9-5.6 1.3-8.3 0-0.1-0.1-0.2-0.1-0.4 -0.6-0.3-0.9 0.1-1.2 0.5 -0.9 1.3-1.2 2.8-1.6 4.3 -0.4 1.9-0.7 3.9-1.1 5.8 -1.3 5.8-3.5 11.3-6 16.6C285.6 76.6 285.2 77.6 284.7 78.5L284.7 78.5zM272.8 100.3c0.2-0.6 0.3-0.9 0.4-1.2 0.5-1.4 1.1-2.9 1.6-4.3 1.8-5.4 2.5-10.9 2.5-16.6 0-2.1 0.3-4.2 0.4-6.3 0.3-4.3 0.8-8.6 0.6-12.9 0-0.1 0-0.1 0-0.2 0-3.3 0-3.3 2.5-5.6 2.3-2.2 4.7-4.3 7.2-6.1 1.4-1 2.9-2 4.5-2.8 2-1.1 4-2.1 6-3.2 0.3-0.2 0.6-0.3 0.9-0.5 0.8-0.3 1.6 0.1 1.9 0.9 0.1 0.2 0.2 0.4 0.2 0.6 0.3 3 0.7 6 1 9 0.3 2.5 0.4 5.1 0.7 7.6 0.7 5.7 0.7 11.4-1.1 16.9 -0.3 1.1-0.8 2.1-1.3 3.1 -1.1 2.4-2.3 4.7-3.3 7.1 -0.4 0.9-1 1.5-1.9 1.8 -2.9 1.2-5.8 2.5-8.7 3.8 -1.4 0.6-2.8 1.4-4.1 2.2 -3 2-5.9 4-8.9 6C273.6 99.9 273.3 100 272.8 100.3L272.8 100.3z" class="d"/><path d="M316.4 91.4c1.2-0.8 1.4-2 1.7-3 1.3-4.3 2.3-8.7 3.1-13.1 0.3-1.7 0.4-3.5 0.3-5.2 0-0.6-0.1-1.1-0.3-1.6 -0.1-0.4-0.4-0.8-0.9-0.8 -0.5 0-0.8 0.4-0.8 0.8 -0.2 0.8-0.3 1.7-0.4 2.5 -0.5 3.9-1.1 7.8-2 11.6 -0.5 2.1-0.9 4.3-1.3 6.4C315.6 89.7 315.6 90.5 316.4 91.4L316.4 91.4zM306.3 115.6c0-0.3-0.1-0.6 0-0.8 1.4-3.1 1.7-6.4 2.1-9.7 0.2-1.8 0.3-3.6 0.4-5.5 0-0.5 0-1 0.1-1.5 0.7-3.8 0.4-7.6 0.1-11.4 0-0.6-0.1-1.3-0.3-1.9 -0.3-0.9-1-1.2-1.8-0.8 -2.4 1.2-5.2 1.3-7.7 2.2 -0.1 0-0.3-0.1-0.5-0.1 0.1-0.3 0.2-0.6 0.3-0.9 1.5-2.6 2.8-5.4 4.5-7.9 4.9-7.5 9.1-15.4 12.9-23.5 0.1-0.3 0.2-0.5 0.4-0.8 0.6-1.1 1.6-1.4 2.6-0.6 0.4 0.3 0.8 0.6 1 1 0.6 0.9 1.3 1.9 1.8 2.9 1.4 2.8 2.7 5.6 4 8.4 0.5 1 0.9 2.1 1.1 3.2 0.3 1.9 0.8 3.7 1.4 5.5 0.6 1.9 1.1 3.8 1.7 5.7 1.4 4.1 2 8.3 1.2 12.7 -0.3 1.6-0.6 3.2-0.8 4.7 -2.1 1.3-4.1 2.5-5.9 3.8 -3.8 2.7-7.7 5.4-11.4 8.3 -2.1 1.7-3.9 3.8-5.9 5.8 -0.4 0.4-0.8 0.7-1.2 1.1L306.3 115.6 306.3 115.6z" class="d"/><path d="M233 35.7c1.3-0.4 1.9-1 2.6-1.6 3-2.9 6.3-5.4 9.7-7.8 2.2-1.6 4.5-3.1 6.8-4.7 0.7-0.5 1.4-1.2 2-1.8 0.2-0.2 0.2-0.6 0.1-0.8 -0.1-0.1-0.5-0.2-0.7-0.2 -0.4 0.1-0.8 0.3-1.1 0.6 -4.9 2.8-9.5 6-13.8 9.6 -1.3 1.1-2.5 2.3-3.6 3.5C234.1 33.4 233.4 34.3 233 35.7L233 35.7zM211.5 63.7c0.2-0.5 0.3-0.9 0.5-1.3 3.7-8 7.2-16 10.4-24.2 1.4-3.5 2.4-7 3.6-10.6 0.1-0.3 0.2-0.5 0.2-0.8 -0.1-1.7 1-2.4 2.3-3.2 4.6-2.6 9.4-4.9 14.3-6.8 2.2-0.9 4.6-1.3 7-1.5 3.7-0.3 7.4 0.2 11.1 0.2 0.8 1.2 0.6 2.3-0.1 3.3 -0.2 0.3-0.4 0.6-0.6 0.9 -3.2 4.3-6.1 8.8-8.8 13.4 -1.6 2.7-3.4 5.2-5.7 7.2 -2.2 2-4.1 4.2-5.9 6.6 -0.9 1.3-2.1 2.2-3.7 2.6 -6 1.6-11.2 4.8-16.6 7.8 -2.4 1.3-4.3 3.2-6.2 5.1C212.8 62.9 212.5 63.5 211.5 63.7L211.5 63.7z" class="d"/><path d="M249.4 73.5c0-0.2 0-0.4 0.1-0.6 1.5-3.9 2.1-8 2.9-12.1 0.8-4.1 1.7-8.1 2.5-12.2 0.2-0.9 0.4-1.8 0.5-2.7 0.1-0.7-0.6-1.3-1.3-1 -2.2 0.9-4.6 0.6-6.8 1.3 -1.2 0.4-2.4 0.7-3.7 1 -0.8 0.2-1.6 0.5-2.6 0.5 0.3-0.5 0.4-0.8 0.6-1 3-3.8 6.4-7.1 10.2-10.1 0.7-0.6 1.6-1 2.4-1.4 1.7-0.8 3.4-1.4 5-2.2 1.7-0.8 3.5-1.5 5.2-2.4 4-2.1 8.3-3.4 12.8-4.2 0.9-0.2 1.4 0.2 1.5 1 0.1 1.3 0.2 2.5 0.1 3.8 -0.3 4.7-0.8 9.4-1.9 14 -0.7 3.2-1.3 6.4-2.4 9.4 -0.1 0.4-0.3 0.8-0.4 1.2 -0.2 0.7-0.7 1-1.3 1.3 -1.4 0.6-2.7 1.2-4 1.8 -4 1.8-7.4 4.7-10.8 7.3 -2.5 1.9-4.9 4-7.1 6.3 -0.3 0.3-0.8 0.6-1.1 0.9C249.7 73.6 249.6 73.5 249.4 73.5L249.4 73.5z" class="d"/><path d="M156.5 77.5c-1.1-4.7-0.9-8.9-0.5-13.1 0.3-3.2 1.2-6.4 2.2-9.4 0.5-1.6 0.9-3.3 1.6-4.8 0.7-1.4 1.6-2.8 2.7-3.9 0.9-1 1.4-2.4 2.7-3.2 0.2-0.1 0.3-0.3 0.4-0.5 1.6-2.1 3.2-4.2 5.4-5.8 0.1 0 0.1-0.1 0.2-0.1 1.3-1.9 3.4-2.7 5.3-3.9 2.5-1.6 5.2-2.6 7.8-3.9 3.9-1.9 7.9-3.7 11.9-5.4 1-0.4 2-0.7 3-1 0.2-0.1 0.4 0.1 0.7 0.1 -1.1 2.1-2.2 4.1-4 5.7 -1.8 1.6-3.6 3.1-5.5 4.6 -2.3 1.8-4.3 3.8-6.2 6 -1.1 1.2-2.1 2.5-3.2 3.7 -1.4 1.5-2.6 3.2-3.7 4.9 -1.3 2.2-3 4.1-4.8 5.9 -2.1 2.1-4.1 4.3-6 6.5 -3.5 4-6.1 8.6-8.2 13.5C157.8 74.6 157.2 75.8 156.5 77.5L156.5 77.5z" class="d"/><path d="M217.4 17.4c0.5-0.1 1-0.1 1.4-0.3 3-1.3 6-2.4 9.1-3.2 2.4-0.7 4.8-1.3 7.1-1.9 0.2-0.1 0.4-0.2 0.9-0.6 -0.7 0-0.9 0-1.2 0 -1.6 0.3-3.3 0.7-4.9 1.1 -3.3 0.9-6.5 1.8-9.6 3.3 -1 0.5-1.9 1.2-2.9 1.7 0 0 0 0.1-0.1 0.1C217.4 17.5 217.4 17.5 217.4 17.4L217.4 17.4zM193 36.1c-0.2-0.6 0.3-0.9 0.6-1.2 2.5-2.6 4.4-5.6 6.6-8.5 0.7-0.9 1.4-1.7 2.1-2.6 0.6-0.7 1.1-1.5 1.6-2.2 0.8-0.9 1.3-2 2.4-2.6 0.2-0.1 0.4-0.4 0.6-0.6 0.8-1 1.8-1.9 2.9-2.6 1.6-0.9 3-2.1 4.6-3 2.8-1.5 5.7-2.6 8.7-3.4 2.8-0.7 5.6-1.2 8.5-1.5 4.2-0.5 8.4-1 12.6-0.8 1.6 0.1 3.2 0.2 4.8 0.3 0.8 0 0.8 0.1 1.6 1.1 -0.1 0.8-0.6 1.4-1.2 1.9 -1 0.9-1.9 1.9-2.9 2.7 -0.4 0.4-0.9 0.7-1.4 0.8 -2.7 0.5-5 1.8-7.5 2.9 -3.8 1.8-7.6 3.7-11.1 6.1 -0.3 0.2-0.7 0.4-1.1 0.6 -5.5 1.4-11 2.9-16.5 4.3 -3 0.7-5.6 2.2-8.2 3.8 -2.3 1.5-4.7 2.8-7.1 4.1 -0.2 0.1-0.5 0.1-0.8 0.2L193 36.1 193 36.1z" class="d"/><path d="M306.7 183.6c0.3 0.6-0.2 1.1-0.5 1.5 -2.1 2.8-4.1 5.7-6.3 8.4 -3.7 4.4-7.5 8.6-11.3 12.9 -0.4 0.5-0.9 0.8-1.4 1.2 -0.8 0.4-1.7 0.7-2.5 1.2 -3.6 1.9-7.2 3.7-11.1 5.1 -4.7 1.8-9.3 3.8-13.6 6.5 -0.3 0.2-0.8 0.2-1.1 0.4 0-0.2-0.1-0.4-0.1-0.6 0.2-0.5 0.5-1 0.8-1.5 2.9-4.6 5.6-9.3 7.4-14.4 0.1-0.2 0.2-0.4 0.3-0.5 2.9-2 5.8-3.9 8.7-6 1.2-0.8 2.3-1.5 3.6-2.1 4.1-1.9 8.2-3.9 12.4-5.9 0.4-0.2 0.9-0.5 1.3-0.7 4.2-1.8 8.4-3.7 12.5-5.5C306.1 183.7 306.4 183.7 306.7 183.6L306.7 183.6z" class="c"/><path d="M283.2 6.6c1-0.9 3.9-2.2 5.8-2.7 2-0.5 4-0.6 6.1-0.7 2.9 0 5.8 0.1 8.6 0.2 1.3 0 2.6 0.5 4 0.4 1.1 0 1.9 0.8 2.2 1.7 0.4 1.2 1 2.1 1.8 3 0.3 0.3 0.5 0.9 0.7 1.3 1.4 3 2.9 5.9 3.8 9.1 0.2 0.9 0.5 1.8 0.8 2.6 0.5 1.5 0.9 3.1 0.9 4.7 0 0.6 0.2 1.2 0.3 1.9 -0.1 0.8-0.2 1.5-0.3 2.3 -0.1 0.6-0.3 1.2-0.9 1.7 -0.8 0.7-1.8 0.5-2.3-0.4 -0.2-0.3-0.3-0.7-0.3-1 -0.1-0.6-0.2-1.3-0.3-1.9 -0.3-1.9-1.1-4.2-2-5.9 -0.1 1.1-0.2 2.1 0 3 0 2.1-0.4 4.2-0.9 6.2 -0.1 0.5-0.3 0.9-1 0.9 -0.5-0.7-0.4-1.6-0.6-2.4 -0.2-1.1-0.5-2.3-0.7-3.4 0.1-1.3 0.1-2.6-0.5-4 -0.2 0.4-0.2 0.6-0.4 0.9 -0.9 1.3-1.7 2.6-2.5 3.9 -0.7 1.2-1.7 1.9-3.2 1.5 -0.3-0.2-0.5-0.5-0.7-0.7 -0.5-1.3-0.6-2.7-0.3-4.1 0.3-1.5 0.6-3 1-4.5 0.3-1.2 0.8-2.4 1.1-3.6 0.3-1 0.7-2 0.5-3.3 -1.4 1.5-2.6 2.9-3.9 4.3 -0.1 0.1-0.3 0.3-0.4 0.5l-0.1 0.1c-0.1 0.1-0.2 0.2-0.3 0.3l0 0.2 0.1 0.1c-0.9 0.1-0.9 0.1-0.9 0.8l-0.1-0.1c-0.4 0.1-0.7 0.1-1.1 0.2 -0.9-1-0.9-1.1-0.4-1.9 0.2-0.3 0.4-0.6 0.6-0.8 1.1-1.5 2.3-3 3.4-4.5 0.4-0.5 0.6-1.1 0.9-1.6 0 0 0.1-0.1 0.1-0.1l-0.1 0c-1.4 0.9-2.8 1.7-4.1 2.6 -2.4 1.6-4.9 3-7.5 4.2 -0.8 0.1-1.6-0.2-2.3-0.7 -0.7-1.2-0.7-2.4 0-3.7 0.2-0.4 0.3-0.7 0.5-1.1 0.4-0.4 0.7-0.8 1.1-1.2 0.5-0.4 0.9-0.9 1.4-1.3 0.4-0.4 0.9-0.7 1.3-1 0.5-0.4 1.1-0.6 1.6-1.3 -0.6 0-1-0.1-1.4 0 -2.6 0.2-5.3 0.5-7.9 0.7 -0.4 0-0.9 0-1.1-0.4C283.1 7.3 283.2 6.9 283.2 6.6L283.2 6.6z" fill="#DA2743"/><path d="M283.2 6.6c0 0.3-0.1 0.7 0 1 0.2 0.4 0.7 0.4 1.1 0.4 2.6-0.2 5.3-0.5 7.9-0.7 0.4 0 0.8 0 1.4 0 -0.5 0.7-1.1 1-1.6 1.3 -0.4 0.3-0.9 0.6-1.3 1 -0.5 0.4-0.9 0.8-1.4 1.3 -0.4 0-0.9-0.1-1.2 0 -0.8 0.2-1.6 0.4-2.4 0.7 -6.5 2.4-13 5-18.9 8.8 -2.4 1.5-4.6 3.2-6.8 5.1 -0.4 0.3-0.7 0.6-1.1 0.9 -0.3-0.5 0-0.8 0.2-1 1.4-2.5 2.9-5 4.3-7.5 0.3-0.5 0.6-1.1 0.8-1.7 0.4-1-0.1-1.8-1.2-2 -1.7-0.2-3.5-0.4-5.3-0.5 -2.2-0.1-4.5 0-6.8 0 -0.4 0-0.8 0-1.3-0.1 0.3-1 1-1.4 1.5-1.9 0.6-0.5 1.1-1.1 1.8-1.7 2.7-1.1 5.8-1.4 8.9-1.6 5.4-0.3 10.8-0.7 16.2-1.2 1.3-0.1 2.6-0.4 4-0.6C282.4 6.6 282.8 6.6 283.2 6.6L283.2 6.6z" class="d"/><path d="M308.7 27.4c0.2 1.1 0.5 2.3 0.7 3.4 0.2 0.8 0.1 1.7 0.6 2.4 0.2 1.3 0.4 2.6 0.5 4 0.3 4.8 0.6 9.7 0.9 14.5 0.1 2.2 0 4.5 0.1 6.7 0 1.2-0.3 2.2-0.9 3.2 -0.1 0.2-0.3 0.5-0.4 0.7 -0.3 0.5-0.6 1.1-1 1.6 -1 1.4-2 2.9-3.1 4.5 -0.5-1.8-0.5-3.4-0.5-4.9 0-3.6 0.1-7.2-0.1-10.8 -0.1-3.2-0.6-6.3-1-9.4 -0.1-0.6-0.3-1.2-0.5-1.8 -0.7-2-2-3.2-4.4-4.3 0.9-2.5 1.7-5 2.6-7.5 1.5 0.4 2.4-0.3 3.2-1.5 0.8-1.3 1.7-2.6 2.6-3.9C308.1 25.3 308.4 26.4 308.7 27.4L308.7 27.4z" class="d"/><path d="M311.8 26.1c-0.1-0.9-0.1-1.9 0-3 1 1.6 1.8 3.9 2 5.9 0.1 0.6 0.2 1.3 0.3 1.9 0.1 0.3 0.2 0.7 0.3 1 0.5 0.9 1.6 1 2.3 0.4 0.5-0.4 0.8-1 0.9-1.7 0.1-0.8 0.2-1.5 0.3-2.3 1.7 2.4 2.6 5.1 3.4 7.9 0.5 1.6 0.9 3.1 1.2 4.7 0.5 2.8 1.6 5.4 2.8 7.9 0.8 1.7 1.6 3.3 2.4 4.9 1.2 2.3 2 4.8 2.8 7.3 0.3 1 0.4 1.9-0.1 2.9 -0.6 1.2-1.1 2.4-1.7 3.8 -0.4-0.4-0.6-0.6-0.8-0.9 -1.4-2.9-2.8-5.8-4.1-8.8 -1-2.5-2.4-4.8-4-7 -0.4-0.5-0.8-1-1.3-1.4 -1.3-1-2.6-0.7-3.2 0.9 -0.3 1-0.8 1.9-1.2 2.9 0 0.1-0.1 0.1-0.2 0.1 0.1-2.8 0.2-5.5 0.3-8.3 0.4-6-0.4-11.8-2-17.5C312.4 27.2 312.1 26.7 311.8 26.1L311.8 26.1z" class="d"/><path d="M299.8 17.7c1.3-1.4 2.5-2.8 3.9-4.3 0.1 1.3-0.3 2.3-0.5 3.3 -0.3 1.2-0.8 2.4-1.1 3.6 -0.4 1.5-0.7 3-1 4.5 -0.3 1.4-0.3 2.8 0.3 4.1 -1.1 3.1-2.1 6.1-3.2 9.2 -0.3 1-0.9 1.7-1.8 2.2 -1.3 0.8-2.7 1.6-4 2.4 -4 2.4-7.9 4.9-11.8 7.3 -0.9 0.5-1.8 1-2.7 1.4 -0.4-0.7 0-1.1 0.3-1.5 1.4-1.9 2.7-3.8 4.1-5.6 2.4-3 4.5-6.1 6.6-9.2 3-4.5 6.1-8.9 8.8-13.6 0.3-0.5 0.6-1.1 0.8-1.7 0-0.1-0.2-0.2-0.4-0.4 0 0 0.1 0.1 0.1 0.1 0.1 0.1 0.3 0.2 0.4 0.2 0.4-0.2 0.5-0.5 0.5-1l-0.1-0.1c0 0 0-0.2 0.1-0.2 0.1-0.1 0.2-0.2 0.3-0.3l0.1-0.1C299.5 18 299.6 17.8 299.8 17.7L299.8 17.7z" class="d"/><path d="M290 17.5c2.6-1.2 5.1-2.6 7.5-4.2 1.3-0.9 2.7-1.7 4.1-2.6l0 0c-0.3 0.5-0.6 1.1-0.9 1.6 -1.1 1.5-2.3 3-3.4 4.5 -0.2 0.3-0.4 0.5-0.6 0.8 -0.5 0.8-0.5 0.9 0.4 1.9 -2.2 3.4-4.3 6.9-6.5 10.3 -0.9 1.4-1.9 2.7-2.8 4.2 -2.6 4.2-5.7 8-8.9 11.7l0 0c0.2-1.5 0.3-3.1 0.5-4.6 0.5-4.5 1.1-8.9 1.6-13.4 0.1-1 0.4-1.7 1.1-2.4 2.3-2.4 4.5-4.8 7-6.9C289.4 18.2 289.7 17.8 290 17.5L290 17.5z" class="d"/><path d="M288.3 12.1c-0.2 0.4-0.3 0.8-0.5 1.1 -0.7 1.2-0.7 2.4 0 3.7 -2.5 2.5-4.9 5-7.3 7.5 -1.5 0.3-2.9 0.6-4.4 1 -5.2 1.4-10.3 3.3-15.3 5.5 -1.8 0.8-3.6 1.5-5.6 2.2 0.2-1 0.8-1.6 1.2-2.1 2.9-3.7 6.5-6.6 10.4-9.2 5.1-3.4 10.7-5.9 16.5-8C284.9 13 286.6 12.6 288.3 12.1L288.3 12.1z" class="d"/><path d="M277.5 217c-0.2 0.3-0.4 0.7-0.7 1 -2.7 2.7-5.4 5.4-8.1 8 -2.9 2.8-6 5.3-9.2 7.7 -0.2 0.2-0.5 0.3-0.7 0.4 -0.1 0.1-0.2 0.2-0.4 0.3 0 0 0 0 0 0 -0.8 0.2-1.6 0.3-2.4 0.5 -2.7 0.7-5.4 1.4-8.1 1.6 0.2-0.4 0.4-0.8 0.6-1.1 2.2-3.2 4.4-6.5 6.6-9.7 0.2-0.3 0.5-0.7 0.8-1 0.5-0.1 1-0.2 1.4-0.4 1.7-0.6 3.3-1.2 4.9-1.8 4.7-1.8 9.4-3.7 14.1-5.5C276.7 216.9 277.1 216.6 277.5 217L277.5 217z" class="c"/><path d="M333.1 94.9c0-0.6-0.1-1.1 0-1.6 0.7-4.7 0.2-9.2-1.1-13.8 -0.3-0.9-0.4-1.9-0.8-2.8 -0.5-1.4-0.3-2.7 0.1-4.1 0.8-2.4 1.5-4.8 2.3-7.2 1.2-0.2 1.5-0.1 1.8 0.7 0.1 0.5 0.2 1 0.3 1.4 0.2 0.6 0.3 1.2 0.6 1.8 0.7 1.3 1.1 2.6 1.5 3.9 0.7 2.1 0.7 4.3 0.5 6.5 -0.1 1.2-0.2 2.4-0.3 3.6 -0.1 3-0.8 5.8-1.8 8.6C335.7 93.6 334.6 94.3 333.1 94.9L333.1 94.9z" class="d"/><path d="M192.6 157.7c0.1-0.2 0.3-0.5 0.4-0.7C193.2 157.4 192.8 157.6 192.6 157.7L192.6 157.7z" class="d"/><path d="M306.2 115.6c0 0.1-0.1 0.2-0.1 0.3 -0.2-0.3 0-0.3 0.2-0.3L306.2 115.6 306.2 115.6z" class="d"/><polygon points="211.3 64.2 211.3 64.1 211.4 64.1 211.3 64.2 " class="d"/><polygon points="278.8 45.8 278.7 45.9 278.8 45.8 278.8 45.8 " class="d"/><path d="M192.9 36.1c-0.1 0.1-0.1 0.1-0.2 0.2 0 0 0-0.1 0.1-0.1 0 0 0.1 0 0.2 0L192.9 36.1 192.9 36.1z" class="d"/><polygon points="259.8 163.8 259.7 163.8 259.8 163.8 259.8 163.8 " class="d"/><path d="M307.2 183.2c-0.2 0.1-0.4 0.3-0.6 0.4C306.9 183.5 307 183.4 307.2 183.2L307.2 183.2z" class="d"/><path d="M285.8 189.5c-0.1 0-0.2-0.1-0.3-0.1 0 0 0.1-0.1 0.1-0.1 0.1 0 0.2 0.1 0.3 0.1C285.9 189.4 285.9 189.4 285.8 189.5L285.8 189.5z" class="d"/><path d="M181.7 355.3c0.3-0.3 0.6-0.7 0.9-1 5.4-5.5 11.1-10.6 17.4-15 5.4-3.8 11-7.4 16.8-10.6 3.9-2.2 7.8-4.6 11.7-6.8 4.6-2.6 9.2-5.1 13.9-7.6 10.3-5.4 20.3-11.2 30-17.7 5.5-3.7 10.8-7.7 16-11.7 7.1-5.6 14.3-11 21.3-16.7 7-5.8 13.9-11.7 20.3-18.2 0.6-0.7 1.3-1.3 2-1.8 0.2-0.2 0.7-0.2 1-0.1 0.2 0.1 0.4 0.6 0.4 0.9 -0.2 0.7-0.4 1.4-0.7 2 -1.1 2.1-2.6 4-4.2 5.8 -1.5 1.6-3 3.2-4.6 4.7 -5.3 5.1-11.1 9.8-16.9 14.4 -12.7 10.1-26.1 19.2-40.1 27.4 -7.8 4.5-15.7 8.9-23.8 12.8 -9 4.3-17.6 9.2-26.3 14 -4.9 2.8-9.7 5.6-14.5 8.7 -6.8 4.5-13.1 9.7-18.9 15.5 -0.5 0.5-1 0.9-1.5 1.4C181.8 355.4 181.7 355.4 181.7 355.3L181.7 355.3z" class="e"/><path d="M13.5 276c0.7 0.2 1.2 0.3 1.5 0.5 0.8 0.5 1.6 1.1 2.4 1.7 5.1 3.9 10 8 14.8 12.3 4.4 3.9 8.8 8 13.2 11.8 5.4 4.6 10.9 9.2 16.4 13.7 4.2 3.5 8.3 7 12 11 4.7 5 9.9 9.4 15 14 7.4 6.5 15.3 12.3 23 18.3 4.6 3.6 8.9 7.5 13 11.7 0.4 0.5 0.8 0.9 1.3 1.4 -0.3 0.4-0.5 0.2-0.7 0 -1.6-1.5-3.1-3.1-4.7-4.6 -4.5-4-9.4-7.5-14.2-11 -0.3-0.3-0.7-0.5-1-0.7 -9.9-6.7-19-14.5-28.2-22.3 -2.3-1.9-4.4-4-6.5-6 -4-3.8-8.3-7.4-12.8-10.8 -6.7-5.1-13.2-10.5-19.4-16.3 -5.7-5.4-11.6-10.7-17.4-16 -2.6-2.4-5-4.9-7.3-7.6C13.8 276.8 13.7 276.6 13.5 276L13.5 276z" class="e"/><path d="M129.6 376.4c-0.1 0-0.3 0.1-0.4 0 -0.6-0.6-1.3-1.2-1.9-1.9 -0.4-0.4-0.7-0.8-1.1-1.2 0.2 0 0.4-0.1 0.5-0.1 1 1.1 1.9 2.2 2.9 3.2L129.6 376.4 129.6 376.4z" class="e"/><path d="M129.6 376.4c0.1 0.3 0.2 0.6 0.3 0.9h0c-0.1-0.3-0.2-0.6-0.3-0.9C129.6 376.4 129.6 376.4 129.6 376.4L129.6 376.4z" class="e"/><polygon points="129.9 377.3 130 377.3 129.9 377.3 129.9 377.3 " class="e"/><polygon points="143.6 376.2 143.5 376.2 143.6 376.2 " class="e"/><path d="M117.3 303.7c-1.8-2.6-3.7-5.1-5.5-7.7 -5-7.4-10-14.8-15.1-22.2 -3.5-5-6.4-10.3-9.2-15.6 -2.1-4-4.2-8-6.2-12 -6.1-12-10.3-24.6-12.6-37.9 -2.1-11.9-2.7-23.9-2.1-36 0.1-2.1 0-4.2 0.2-6.3 0.2-3.2 0.5-6.3 0.9-9.5 0.1-0.8 0-1.7 0.9-2.3 1.2 0.5 0.7 1.5 0.8 2.4 0.1 1.3 0 2.5 0 3.8 0 6.9-0.2 13.8 0 20.7 0.2 9.6 1.4 19.1 3.5 28.5 1.2 5.1 2.4 10.1 3.5 15.2 1.9 8.4 5 16.3 8.7 24 2.5 5.1 5.1 10.2 7.6 15.3 1.6 3.3 3.5 6.4 5.6 9.5 2.7 4 5.3 8 8 11.9 2.4 3.6 4.8 7.3 6.9 11.1 1.1 1.9 2.3 3.7 3.5 5.5 0.3 0.5 0.8 1 0.8 1.7C117.2 303.7 117.3 303.7 117.3 303.7L117.3 303.7z" class="e"/><path d="M118.2 304.5c-0.5 0-0.7-0.4-0.9-0.8l0 0c0.3 0.3 0.6 0.5 0.9 0.8L118.2 304.5 118.2 304.5z" class="e"/><path d="M118.5 305.5c0.1 0 0.3 0.1 0.4 0.2 0.1 0 0 0.2 0.1 0.3 0 0-0.1-0.1-0.1-0.1 -0.1-0.1-0.2-0.2-0.2-0.3L118.5 305.5 118.5 305.5z" class="e"/><path d="M118.1 304.5c0.1 0.3 0.2 0.6 0.3 1 0 0 0 0 0 0 -0.1-0.3-0.2-0.6-0.3-1C118.2 304.5 118.1 304.5 118.1 304.5L118.1 304.5z" class="e"/><path d="M257.9 192.3c0 0.6 0.2 1 0.1 1.3 -0.4 0.8-0.8 1.7-1.2 2.4 -0.9 1.4-1.8 2.7-2.7 4 -5.2 7.7-10.8 15.1-16.3 22.6 -0.6 0.8-1.2 1.6-1.7 2.4 -5.8 8.7-12.2 17.1-18.5 25.5 -5.1 6.8-9.9 13.9-14.5 21 -5 7.7-10.4 15-16.3 22.1 -2.2 2.6-4.6 5-6.9 7.4 -4 4.3-7.7 8.8-11 13.6 -0.3 0.4-0.6 0.8-1.1 1.4 0.3-1.5 0.9-2.5 1.6-3.4 1.8-2.5 3.5-4.9 5.4-7.3 2.6-3.3 5.4-6.5 8.1-9.7 6.9-8.5 13.3-17.3 18.9-26.7 5.8-9.7 12.1-19 18.8-28.1 3.3-4.5 6.6-9 9.8-13.5 2.9-4 5.9-7.9 9-11.7 4.8-5.9 9.4-11.9 14.1-17.9 1.1-1.4 2.3-2.9 3.4-4.3C257.1 193.1 257.4 192.8 257.9 192.3L257.9 192.3z" class="e"/><path d="M277.5 217c-0.4-0.4-0.8 0-1.2 0.1 -4.7 1.8-9.4 3.7-14.1 5.5 -1.6 0.6-3.3 1.2-4.9 1.8 -0.5 0.2-0.9 0.2-1.4 0.4 0.7-1.1 1.5-2.2 2.2-3.2 0.4-0.1 0.8-0.1 0.9-0.7l0 0c0.4-0.1 0.8-0.2 1.1-0.4 4.3-2.7 8.9-4.8 13.6-6.5 3.8-1.4 7.5-3.2 11.1-5.1 0.8-0.4 1.6-0.8 2.5-1.2 -0.4 0.5-0.8 1.1-1.3 1.6 -1.9 1.9-3.8 3.7-5.7 5.5 -0.6 0.6-1.3 1.2-2 1.8 -0.4-0.1-0.7-0.1-0.7 0.4L277.5 217 277.5 217z" class="e"/><path d="M206.5 234.7c-2.3-0.6-4.6-1.2-6.9-1.9 -0.5-0.1-0.9-0.3-1.4-0.5 0.9-2.3 2.1-4.3 3.4-6.3 1.9-0.2 3.9-0.4 5.8-0.7 2.3-0.3 4.6-0.7 6.8-1 -0.8 1.1-1.5 2.2-2.3 3.3 -1.6 2.2-3.2 4.3-4.8 6.4C207 234.2 206.7 234.4 206.5 234.7L206.5 234.7z" class="c"/><path d="M214.3 224.2c-2.3 0.4-4.6 0.7-6.8 1.1 -1.9 0.3-3.9 0.4-5.8 0.7 0.4-0.7 0.9-1.5 1.3-2.2 2-0.2 4-0.3 6-0.5 1.7-0.2 3.5-0.4 5.2-0.6 0.5-0.1 1-0.1 1.5-0.1C215.2 223.1 214.7 223.7 214.3 224.2L214.3 224.2z" class="e"/><path d="M258.9 220.8c-0.1 0.5-0.5 0.6-0.9 0.7C258.2 221.1 258.3 220.6 258.9 220.8L258.9 220.8z" class="d"/><path d="M123.7 225.2c-0.3-1-0.7-2-0.9-3 -0.9-3.8-1.9-7.6-2.7-11.5 -1.2-6.1-2.7-12.1-4.3-18.1 -1.3-4.9-2.3-9.9-3.3-14.8 -0.5-2.7-0.8-5.4-1.1-8.2 -0.4-4.8-0.6-9.6-1-14.3 -0.4-5.1-0.4-10.1-0.3-15.2 0.1-6.3 0.7-12.5 1.5-18.7 0.6-4.2 1.2-8.4 1.8-12.5 0.2-1.1 0.5-2.2 0.8-3.3 0.1-0.2 0.3-0.4 0.5-0.7 0.5 0.5 0.4 1 0.3 1.5 -0.3 3-0.7 6-1 9 -0.4 3.7-0.7 7.4-1.1 11.1 -0.6 6.2-0.6 12.5-0.5 18.8 0.1 5 0.5 10 1 15 0.3 3.4 0.6 6.9 1.1 10.3 0.6 4.6 1.2 9.2 2 13.8 1.2 6.9 2.5 13.9 3.7 20.8 0.3 1.7 0.6 3.3 0.8 5 0.5 4.1 1.3 8.2 2.2 12.3 0.2 0.9 0.4 1.8 0.5 2.7C123.8 225.2 123.8 225.2 123.7 225.2L123.7 225.2z" class="e"/><path d="M124.3 92.3c0.9-2.1 1.8-4.1 2.8-6.2 3-6.7 6.6-13.1 10.5-19.3 2.3-3.6 4.8-7 7.5-10.2 1-1.2 2.2-2.2 3.3-3.3 0.1-0.1 0.3-0.3 0.5-0.4 0.3-0.3 0.7-0.5 1.1-0.3 0.3 0.2 0.3 0.7-0.1 1.3 -0.4 0.6-0.9 1.1-1.3 1.7 -0.9 1.1-1.8 2.2-2.6 3.3 -3 3.8-5.4 8-8 12.2 -4.4 7.2-8 14.7-11.2 22.5C125.9 93.1 125.1 92.7 124.3 92.3L124.3 92.3z" class="e"/><path d="M131.2 106.6c0.3-2.6 0.5-5.3 1.3-7.9 0.4-1.3 0.8-2.7 1.3-4 0.1-0.3 0.4-0.5 0.8-1.2 -0.1 0.8-0.2 1.2-0.3 1.5 -1.3 4.7-1.7 9.5-1.8 14.4 0 3.2 0.1 6.3 0 9.5 0 8.4-0.1 16.7-0.1 25.1 0 0.9-0.2 1.8-0.2 2.7 -0.1-3.8-0.1-7.5-0.2-11.3 -0.2-7.8-0.4-15.6-0.7-23.4 0-0.5-0.1-1-0.2-1.4C131.3 109.2 131.3 107.9 131.2 106.6L131.2 106.6z" class="e"/><path d="M261.4 244.5c6.7-6.2 13.1-12.8 19.9-18.9 3-2.6 5.8-5.6 8.7-8.3 1.7-1.5 3.4-3 5.1-4.4 8.9-7.4 16.9-15.7 23.9-25 5.7-7.5 10.8-15.5 14.7-24.1 1.5-3.3 3.3-6.6 5-9.8 2.8-5.2 5.3-10.6 7.6-16 0.7-1.7 1.4-3.4 2.1-5.1 0.1-0.2 0.4-0.5 0.6-0.4 0.2 0 0.4 0.4 0.5 0.6 0.2 0.9 0.1 1.8-0.1 2.7 -0.9 3.7-2.2 7.3-3.7 10.8 -1.4 3.2-2.9 6.3-4.4 9.4 -2.5 5-5.2 10-7.8 15 -3 5.6-6.8 10.7-10.5 15.9 -4.5 6.5-10 12-15.8 17.3 -1.1 1-2.2 2-3.3 3 -0.7 0.6-1.6 0.9-2.2 1.6 -0.8 1-1.9 1.4-2.7 2.2 -0.8 0.9-1.7 1.6-2.7 2.4 -2.9 2.3-5.6 4.7-8.3 7.2 -7.2 6.8-14.5 13.6-21.7 20.4 -1.2 1.1-2.4 2.1-3.7 3.2 -0.4 0.3-0.8 0.7-1.3 0.5L261.4 244.5 261.4 244.5z" class="e"/><path d="M319 160.4c-0.7 0.5-1.3 1-2.1 1.4 -0.7 0.5-1.5 0.9-2.7 0.9 0.2-0.4 0.2-0.7 0.4-0.9 0.4-0.5 0.8-0.9 1.3-1.4 1.7-1.8 3.5-3.6 5.3-5.4 0.2-0.2 0.5-0.4 0.8-0.6 0 0.3 0.1 0.6 0 0.8C320.9 157 319.9 158.7 319 160.4L319 160.4z" class="e"/><path d="M261.4 244.5c-0.1 0.2-0.2 0.4-0.2 0.6 -0.1-0.1-0.1-0.1-0.2-0.2 0.2-0.1 0.3-0.3 0.5-0.4L261.4 244.5 261.4 244.5z" class="e"/><path d="M322.3 154.1c0.1-0.2 0.2-0.4 0.4-0.6C322.5 153.6 322.4 153.9 322.3 154.1L322.3 154.1z" class="e"/><path d="M258.5 234.4c0.1-0.1 0.2-0.2 0.4-0.3C258.7 234.2 258.6 234.3 258.5 234.4L258.5 234.4z" class="e"/><path d="M321.9 154.5c0.1-0.2 0.3-0.3 0.4-0.5C322.3 154.3 322.3 154.5 321.9 154.5L321.9 154.5z" class="e"/><path d="M277.5 217c0-0.5 0.3-0.5 0.7-0.4C277.9 216.7 277.7 216.9 277.5 217L277.5 217z" class="d"/><path d="M153.4 278.7c1.6-2.6 3.1-5.3 4.8-7.9 4.4-6.8 8.4-13.9 12.2-21 3.1-5.8 6.5-11.5 10.2-17 2.8-4.3 5.4-8.7 7.8-13.3 2.1-4 4.4-7.8 6.6-11.8 1.6-2.9 3.2-5.8 4.7-8.7 5.5-10.7 11-21.4 16.5-32.1 1.4-2.8 2.7-5.6 4.1-8.3 0.3-0.6 0.7-1.2 1-1.8 0.1-0.2 0.4-0.3 0.8-0.6 0.1 0.5 0.3 0.8 0.2 1.1 -0.2 1.1-0.4 2.2-0.8 3.3 -1 2.7-2 5.4-3.3 8 -5.1 10.5-10.2 21-16 31.2 -2.9 5-5.9 9.9-8.9 14.9 -2.8 4.7-5.7 9.4-8.6 14 -1.6 2.5-3.4 4.8-5 7.2 -2.7 4.3-5.4 8.5-7.8 13 -2.2 4-4.4 7.9-6.6 11.8 -1.5 2.6-3.2 5.1-4.8 7.7 -2.1 3.3-4.2 6.6-6.4 10 -0.1 0.2-0.3 0.5-0.4 0.7C153.6 278.8 153.5 278.7 153.4 278.7L153.4 278.7z" class="e"/><path d="M227.9 173c0.4-0.2 0.9-0.5 1.2-0.8 4.5-3.6 8.6-7.7 12.4-12.1 5.7-6.6 11-13.6 15.6-21 1.8-2.9 3.3-5.9 4.9-8.8 1.6-2.9 3.4-5.7 5.5-8.2 0.2-0.3 0.4-0.6 0.7-0.8 0.3-0.3 0.5-0.7 1-0.6 0.3 0.1 0.4 0.5 0.1 1.3 -0.7 1.7-1.5 3.3-2.2 5 -0.8 2-1.7 4-2.4 6.1 -1.7 5.5-4.4 10.5-7.8 15.1 -4.2 5.7-9 11-14.1 16 -1.4 1.3-2.8 2.6-4.3 3.7 -3.6 2.7-7.2 5.4-10.8 8.1 -0.5 0.4-0.9 0.9-1.7 0.8C226.8 175.6 227.3 174.3 227.9 173L227.9 173z" class="e"/><path d="M170.5 220.3c-1-0.4-2-0.9-3.2-1.4 0.7-0.6 1.3-0.4 1.9-0.4 0.6-0.1 1.3-0.1 1.9-0.1C170.9 219 170.7 219.7 170.5 220.3L170.5 220.3z" class="d"/><path d="M152.9 279.9c-0.1 0.1-0.2 0.3-0.2 0.5 0.1-0.2 0.1-0.3 0.2-0.5C152.9 279.9 152.9 279.9 152.9 279.9L152.9 279.9z" class="e"/><path d="M164.2 241.6c0.1-0.1 0.3-0.3 0.4-0.4C164.4 241.3 164.3 241.5 164.2 241.6L164.2 241.6z" class="e"/><path d="M151.5 230.9c0.1 0.8 0.2 1.6 0.4 2.4 -0.7 1.4-1.5 2.7-2.1 4.1 -1.8 3.9-3.5 7.9-5.2 11.8 -2 4.7-3.1 9.6-4 14.6 -0.5 2.6-0.9 5.1-1.4 7.7 -1.2 5.4-1.5 10.9-1.2 16.4 0.1 1.4 0.1 2.8 0.1 4.2 -0.1 3.8 0.4 7.4 1.4 11.1 0.3 1.1 0.5 2.2 0.8 3.3 0.7 2.5 1.1 5.1 1.4 7.7 0.7 6.4 1.4 12.7 2.3 19.1 0.4 2.8 1.1 5.5 1.7 8.3 1.3 5.5 2.6 11.1 4 16.6 1.8 7.4 4 14.7 6.7 21.7 1.2 3 2.5 6 3.3 9.1 1.3 4.9 3.1 9.6 5 14.3 0.3 0.7 0.7 1.4 1 2.1 2.5 5 5.7 9.6 8.5 14.4 2 3.5 4.1 6.9 6.6 10.1 1 1.4 1.8 2.9 2.8 4.4 -0.2 0.2-0.3 0.3-0.5 0.5 -0.3-0.2-0.6-0.4-0.8-0.6 -2.1-2.8-4.6-5.3-6.5-8.3 -1.4-2.2-3-4.3-4.3-6.5 -1.7-2.8-3.2-5.6-4.8-8.5 -1.4-2.5-2.7-5.1-4-7.7 -1.2-2.3-2-4.6-2.8-7.1 -1.8-5.5-3.6-10.9-5.4-16.4 -0.2-0.5-0.3-0.9-0.6-1.4 -2.6-4.8-4.1-10-6.1-15.1 -0.5-1.3-0.9-2.7-1.2-4.1 -0.8-4.2-1.7-8.4-2.4-12.7 -0.5-3.3-0.8-6.6-1.1-9.9 -0.5-6.4-1.1-12.8-1.8-19.1 -0.5-4.6-1.5-9-2.7-13.4 -0.7-2.6-1.3-5.2-1.7-7.8 -0.6-4.4-0.9-8.8-0.5-13.3 0.6-6.7 1.7-13.3 2.5-19.9 0.6-4.4 1.9-8.5 3.2-12.6 0.4-1.3 0.9-2.5 1.5-3.7 2.5-5.1 5-10.3 7.5-15.4C151.3 231.1 151.4 231 151.5 230.9L151.5 230.9z" class="e"/><path d="M201.7 105.7c-0.3 0.5-0.6 1.1-0.9 1.6 -5.5 9-10.5 18.3-15.1 27.8 -2.9 6-5.9 12-8.6 18.1 -4.8 11-9.2 22.2-12.9 33.7 -2.5 7.9-4.4 16-6 24.2 -0.6 3-1.1 6.1-1.7 9.1 -0.1 0.8-0.3 1.6-0.9 2.3 -0.1-0.2-0.3-0.3-0.3-0.4 0-0.8 0-1.7 0.1-2.5 0.7-4.5 1.3-9.1 2.1-13.6 0.7-3.8 1.5-7.6 2.3-11.4 0.3-1.5 0.8-3 1.2-4.5 2.9-9.2 6-18.3 9.6-27.3 2.3-5.8 4.4-11.7 7-17.4 4.4-10.1 9.1-20 14.9-29.3 1.6-2.5 3.2-4.9 5-7.4 0.8-1.1 1.8-2 2.7-3 0.3-0.3 0.7-0.4 1-0.6C201.5 105.5 201.6 105.6 201.7 105.7L201.7 105.7z" class="e"/><path d="M208 118.1c1.4-1.6 2.8-3.3 4.3-4.9 0.3-0.4 0.6-0.9 1.5-1.1 -0.2 0.5-0.3 0.7-0.5 0.9 -1.9 2.6-3.9 5.3-5.8 7.9 -0.1 0.2-0.3 0.3-0.5 0.4C207.3 120.3 207.6 119.2 208 118.1L208 118.1z" class="e"/><path d="M187.1 169.7c0.1 0.1 0.2 0.3 0.2 0.3 -0.6 1.3-1.2 2.6-2.3 3.5 0.6-1.2 1.1-2.4 1.7-3.5C186.6 169.8 186.9 169.8 187.1 169.7L187.1 169.7z" class="e"/><path d="M184.9 173.5c-0.1 0.3-0.3 0.6-0.4 0.9C184.6 174.1 184.8 173.8 184.9 173.5L184.9 173.5z" class="e"/><path d="M184.5 174.3c-0.1 0.2-0.2 0.4-0.4 0.6C184.3 174.7 184.4 174.5 184.5 174.3L184.5 174.3z" class="e"/><path d="M187.5 169.2c0.1 0.3 0.1 0.6-0.4 0.5C187 169.4 186.9 169 187.5 169.2L187.5 169.2z" class="e"/><polygon points="213.9 111.7 213.8 111.6 213.9 111.6 213.9 111.7 " class="e"/><path d="M170.3 78.4c0.6-1 1.1-2.1 1.7-3.1 2.5-4.2 5.3-8.1 8.1-12.1 2.6-3.6 5.2-7.2 8.2-10.5 4.8-5.4 10.2-9.9 16.2-13.7 2.1-1.3 4.3-2.4 6.6-3.2 0.4-0.2 0.9-0.2 1.7-0.4 -0.2 0.5-0.2 0.8-0.4 0.9 -1.4 1.1-2.8 2.2-4.3 3.1 -4.2 2.6-8.2 5.5-12 8.5 -6.4 5-11.9 11-16.7 17.6 -2.9 4-5.7 8-8.3 12.2 -0.2 0.3-0.4 0.6-0.6 0.9C170.5 78.5 170.4 78.4 170.3 78.4L170.3 78.4z" class="e"/><path d="M233.1 113.9c0.1-0.7 0-1.1 0.2-1.4 0.5-1.1 1-2.2 1.6-3.2 1.7-2.6 3.7-5 5.7-7.3 2.5-2.8 5-5.5 7.5-8.3 4.2-4.6 8-9.6 11.5-14.9 1-1.6 2-3.2 3.1-4.7 0.6-0.8 1.3-1.5 2-2.2 0.2-0.2 0.7-0.2 1.3-0.4 -0.1 0.6-0.1 0.9-0.2 1.2 -2.9 7.5-7 14.3-12.6 20 -2.1 2.1-4.2 4.1-6.4 6.1 -4.1 3.9-7.8 8.1-11.3 12.6 -0.5 0.6-0.9 1.2-1.5 1.8C233.9 113.5 233.6 113.6 233.1 113.9L233.1 113.9z" class="e"/><path d="M324.3 144.4c2.5-7.4 5.1-14.7 7.6-22.1 1-2.9 1.8-5.8 2.7-8.7 0.7-2.3 1.5-4.7 2.3-7 0.2-0.7 0.5-1.3 0.9-1.9 0.2-0.3 0.4-0.6 0.7-0.8 0.2-0.1 0.6-0.2 0.8-0.1 0.2 0.1 0.4 0.4 0.4 0.6 0 0.9 0 1.8-0.2 2.7 -0.2 1.2-0.6 2.5-0.9 3.7 -0.6 2.4-1.2 4.8-1.9 7.1 -0.6 2-1.2 3.9-2 5.8 -1.5 3.7-3.2 7.3-5.1 10.9 -1.3 2.4-2.4 4.9-3.6 7.4 -0.4 0.9-1 1.7-1.5 2.5C324.4 144.5 324.4 144.4 324.3 144.4L324.3 144.4z" class="e"/><path d="M323.6 145.6c0 0.1-0.1 0.2-0.1 0.3 0 0 0-0.1 0-0.1 0-0.1 0-0.1 0.1-0.2L323.6 145.6 323.6 145.6z" class="e"/><path d="M323.6 145.6c0 0 0 0 0 0L323.6 145.6 323.6 145.6z" class="e"/><path d="M281 136.6c0.1-0.7 0-0.9 0.1-1.1 0.4-0.9 0.9-1.9 1.4-2.8 2.6-4.7 5.3-9.5 7.9-14.2 2-3.6 3.4-7.4 4.9-11.2 1.1-3 2.2-6.1 3.4-9.1 0.7-1.9 1.6-3.7 2.9-5.4 0.8-1.1 1.4-1.4 1.8-1 0.7 0.5 0.4 1.3 0.3 2 0 0.3-0.1 0.5-0.2 0.8 -1.6 4.6-3.3 9.1-5 13.7 -1 2.6-2.4 5.1-3.9 7.5 -4.1 6.5-8.3 13-12.5 19.5C281.9 135.6 281.6 135.9 281 136.6L281 136.6z" class="e"/><path d="M237.8 71.2c-0.2-0.6 0.1-1.1 0.3-1.6 1.6-3.4 3.1-6.9 4.7-10.3 0.2-0.4 0.4-0.7 0.7-1 0.1-0.1 0.3-0.1 0.4 0 0.1 0 0.2 0.2 0.2 0.3 0 0.3-0.1 0.7-0.2 1 -1.5 3.2-3 6.3-4.6 9.5 -0.4 0.8-1.1 1.5-1.6 2.2L237.8 71.2 237.8 71.2z" class="e"/><polygon points="237.8 71.2 237.7 71.2 237.8 71.2 237.8 71.2 " class="e"/><path d="M284.7 78.5c0.4-0.9 0.9-1.9 1.3-2.8 2.5-5.4 4.7-10.9 6-16.6 0.4-1.9 0.7-3.9 1.1-5.8 0.3-1.5 0.7-3 1.6-4.3 0.3-0.4 0.6-0.8 1.2-0.5 0.1 0.1 0.2 0.3 0.1 0.4 -0.4 2.8-0.8 5.6-1.3 8.3 -0.1 0.9-0.3 1.8-0.6 2.7 -1.6 5.3-3.4 10.6-6.1 15.5 -0.6 1-1.3 2-2 2.9 -0.2 0.3-0.7 0.5-1 0.7C285 78.7 284.8 78.6 284.7 78.5L284.7 78.5z" class="e"/><path d="M316.4 91.4c-0.8-0.8-0.8-1.6-0.6-2.5 0.4-2.1 0.8-4.3 1.3-6.4 0.8-3.8 1.5-7.7 2-11.6 0.1-0.8 0.3-1.7 0.4-2.5 0.1-0.4 0.4-0.8 0.8-0.8 0.5 0 0.8 0.3 0.9 0.8 0.1 0.5 0.3 1.1 0.3 1.6 0.1 1.8 0 3.5-0.3 5.2 -0.8 4.4-1.8 8.8-3.1 13.1C317.8 89.4 317.5 90.5 316.4 91.4L316.4 91.4z" class="e"/><path d="M233 35.7c0.4-1.5 1-2.4 1.8-3.2 1.2-1.2 2.4-2.4 3.6-3.5 4.3-3.6 8.9-6.8 13.8-9.6 0.4-0.2 0.7-0.4 1.1-0.6 0.2-0.1 0.6 0 0.7 0.2 0.1 0.2 0.1 0.6-0.1 0.8 -0.6 0.6-1.3 1.3-2 1.8 -2.2 1.6-4.5 3.1-6.8 4.7 -3.4 2.4-6.7 4.9-9.7 7.8C234.9 34.7 234.3 35.4 233 35.7L233 35.7z" class="e"/><path d="M217.5 17.5c1-0.6 1.9-1.2 2.9-1.7 3-1.5 6.3-2.4 9.6-3.2 1.6-0.4 3.3-0.8 4.9-1.1 0.3-0.1 0.5 0 1.2 0 -0.5 0.3-0.7 0.5-0.9 0.6 -2.4 0.7-4.8 1.3-7.1 1.9 -3.1 0.9-6.2 1.9-9.1 3.2 -0.4 0.2-0.9 0.2-1.4 0.3L217.5 17.5 217.5 17.5z" class="e"/><path d="M217.4 17.4c0 0 0 0.1 0 0.1 0 0 0-0.1 0.1-0.1C217.5 17.5 217.4 17.4 217.4 17.4L217.4 17.4z" class="e"/><path d="M308.7 27.4c-0.3-1-0.6-2.1-0.9-3.1 0.1-0.3 0.2-0.5 0.4-0.9C308.8 24.8 308.8 26.1 308.7 27.4L308.7 27.4z" class="e"/><path d="M299.1 18.7c0.1 0.4-0.1 0.8-0.5 1 -0.1 0-0.3-0.1-0.4-0.2C298.2 18.8 298.2 18.8 299.1 18.7L299.1 18.7z" class="e"/><polygon points="301.6 10.7 301.7 10.7 301.6 10.7 301.6 10.7 " class="d"/><path d="M299.8 17.7c-0.1 0.2-0.3 0.3-0.4 0.5C299.5 18 299.6 17.8 299.8 17.7L299.8 17.7z" class="f"/><path d="M299.3 18.2c-0.1 0.1-0.2 0.2-0.3 0.3C299.1 18.4 299.2 18.3 299.3 18.2L299.3 18.2z" class="f"/></svg>